solid OpenSCAD_Model
  facet normal 1 -0 0
    outer loop
      vertex 1.5 -2 3.5
      vertex 1.5 2 1
      vertex 1.5 2 3.5
    endloop
  endfacet
  facet normal 1 0 0
    outer loop
      vertex 1.5 2 1
      vertex 1.5 -2 3.5
      vertex 1.5 -2 1
    endloop
  endfacet
  facet normal -0 0 1
    outer loop
      vertex -1.5 2 3.5
      vertex 1.5 -2 3.5
      vertex 1.5 2 3.5
    endloop
  endfacet
  facet normal 0 0 1
    outer loop
      vertex 1.5 -2 3.5
      vertex -1.5 2 3.5
      vertex -1.5 -2 3.5
    endloop
  endfacet
  facet normal 0 0 -1
    outer loop
      vertex 4 -3.5 0
      vertex 0.849999 -0.849999 0
      vertex 4 3.5 0
    endloop
  endfacet
  facet normal 0 0 -1
    outer loop
      vertex 4 -3.5 0
      vertex -0.849999 -0.849999 0
      vertex 0.849999 -0.849999 0
    endloop
  endfacet
  facet normal -0 0 -1
    outer loop
      vertex -0.849999 -0.849999 0
      vertex -4 -3.5 0
      vertex -0.849999 0.849999 0
    endloop
  endfacet
  facet normal 0 0 -1
    outer loop
      vertex -4 -3.5 0
      vertex -0.849999 -0.849999 0
      vertex 4 -3.5 0
    endloop
  endfacet
  facet normal 0 0 -1
    outer loop
      vertex 0.849999 0.849999 0
      vertex 4 3.5 0
      vertex 0.849999 -0.849999 0
    endloop
  endfacet
  facet normal 0 0 -1
    outer loop
      vertex -0.849999 0.849999 0
      vertex 4 3.5 0
      vertex 0.849999 0.849999 0
    endloop
  endfacet
  facet normal 0 0 -1
    outer loop
      vertex -0.849999 0.849999 0
      vertex -4 3.5 0
      vertex 4 3.5 0
    endloop
  endfacet
  facet normal 0 0 -1
    outer loop
      vertex -4 3.5 0
      vertex -0.849999 0.849999 0
      vertex -4 -3.5 0
    endloop
  endfacet
  facet normal -1 0 0
    outer loop
      vertex -1.5 -2 1
      vertex -1.5 2 3.5
      vertex -1.5 2 1
    endloop
  endfacet
  facet normal -1 -0 0
    outer loop
      vertex -1.5 2 3.5
      vertex -1.5 -2 1
      vertex -1.5 -2 3.5
    endloop
  endfacet
  facet normal 0 1 -0
    outer loop
      vertex 1.5 2 1
      vertex -1.5 2 3.5
      vertex 1.5 2 3.5
    endloop
  endfacet
  facet normal 0 1 0
    outer loop
      vertex -1.5 2 3.5
      vertex 1.5 2 1
      vertex -1.5 2 1
    endloop
  endfacet
  facet normal 0 -1 0
    outer loop
      vertex -1.5 -2 1
      vertex 1.5 -2 3.5
      vertex -1.5 -2 3.5
    endloop
  endfacet
  facet normal 0 -1 -0
    outer loop
      vertex 1.5 -2 3.5
      vertex -1.5 -2 1
      vertex 1.5 -2 1
    endloop
  endfacet
  facet normal 1 -0 0
    outer loop
      vertex 4 -3.5 1
      vertex 4 3.5 0
      vertex 4 3.5 1
    endloop
  endfacet
  facet normal 1 0 0
    outer loop
      vertex 4 3.5 0
      vertex 4 -3.5 1
      vertex 4 -3.5 0
    endloop
  endfacet
  facet normal 0 0 1
    outer loop
      vertex 4 3.5 1
      vertex 1.5 2 1
      vertex 4 -3.5 1
    endloop
  endfacet
  facet normal 0 0 1
    outer loop
      vertex 4 3.5 1
      vertex -1.5 2 1
      vertex 1.5 2 1
    endloop
  endfacet
  facet normal 0 0 1
    outer loop
      vertex -1.5 2 1
      vertex -4 3.5 1
      vertex -1.5 -2 1
    endloop
  endfacet
  facet normal -0 0 1
    outer loop
      vertex -4 3.5 1
      vertex -1.5 2 1
      vertex 4 3.5 1
    endloop
  endfacet
  facet normal -0 0 1
    outer loop
      vertex 1.5 -2 1
      vertex 4 -3.5 1
      vertex 1.5 2 1
    endloop
  endfacet
  facet normal -0 0 1
    outer loop
      vertex -1.5 -2 1
      vertex 4 -3.5 1
      vertex 1.5 -2 1
    endloop
  endfacet
  facet normal 0 0 1
    outer loop
      vertex -1.5 -2 1
      vertex -4 -3.5 1
      vertex 4 -3.5 1
    endloop
  endfacet
  facet normal 0 0 1
    outer loop
      vertex -4 -3.5 1
      vertex -1.5 -2 1
      vertex -4 3.5 1
    endloop
  endfacet
  facet normal -1 0 0
    outer loop
      vertex -4 -3.5 0
      vertex -4 3.5 1
      vertex -4 3.5 0
    endloop
  endfacet
  facet normal -1 -0 0
    outer loop
      vertex -4 3.5 1
      vertex -4 -3.5 0
      vertex -4 -3.5 1
    endloop
  endfacet
  facet normal 0 1 -0
    outer loop
      vertex 4 3.5 0
      vertex -4 3.5 1
      vertex 4 3.5 1
    endloop
  endfacet
  facet normal 0 1 0
    outer loop
      vertex -4 3.5 1
      vertex 4 3.5 0
      vertex -4 3.5 0
    endloop
  endfacet
  facet normal 0 -1 0
    outer loop
      vertex -4 -3.5 0
      vertex 4 -3.5 1
      vertex -4 -3.5 1
    endloop
  endfacet
  facet normal 0 -1 -0
    outer loop
      vertex 4 -3.5 1
      vertex -4 -3.5 0
      vertex 4 -3.5 0
    endloop
  endfacet
  facet normal -1 0 0
    outer loop
      vertex 0.849999 -0.849999 0
      vertex 0.849999 0.849999 2.49
      vertex 0.849999 0.849999 0
    endloop
  endfacet
  facet normal -1 -0 0
    outer loop
      vertex 0.849999 0.849999 2.49
      vertex 0.849999 -0.849999 0
      vertex 0.849999 -0.849999 2.49
    endloop
  endfacet
  facet normal 0 0 -1
    outer loop
      vertex -0.849999 -0.849999 2.49
      vertex 0.849999 0.849999 2.49
      vertex 0.849999 -0.849999 2.49
    endloop
  endfacet
  facet normal -0 0 -1
    outer loop
      vertex 0.849999 0.849999 2.49
      vertex -0.849999 -0.849999 2.49
      vertex -0.849999 0.849999 2.49
    endloop
  endfacet
  facet normal 1 -0 0
    outer loop
      vertex -0.849999 -0.849999 2.49
      vertex -0.849999 0.849999 0
      vertex -0.849999 0.849999 2.49
    endloop
  endfacet
  facet normal 1 0 0
    outer loop
      vertex -0.849999 0.849999 0
      vertex -0.849999 -0.849999 2.49
      vertex -0.849999 -0.849999 0
    endloop
  endfacet
  facet normal 0 -1 0
    outer loop
      vertex -0.849999 0.849999 0
      vertex 0.849999 0.849999 2.49
      vertex -0.849999 0.849999 2.49
    endloop
  endfacet
  facet normal 0 -1 -0
    outer loop
      vertex 0.849999 0.849999 2.49
      vertex -0.849999 0.849999 0
      vertex 0.849999 0.849999 0
    endloop
  endfacet
  facet normal 0 1 -0
    outer loop
      vertex 0.849999 -0.849999 0
      vertex -0.849999 -0.849999 2.49
      vertex 0.849999 -0.849999 2.49
    endloop
  endfacet
  facet normal 0 1 0
    outer loop
      vertex -0.849999 -0.849999 2.49
      vertex 0.849999 -0.849999 0
      vertex -0.849999 -0.849999 0
    endloop
  endfacet
endsolid OpenSCAD_Model
