solid OpenSCAD_Model
  facet normal 1 -0 0
    outer loop
      vertex 141.7 0 3
      vertex 141.7 2.7 0
      vertex 141.7 2.7 3
    endloop
  endfacet
  facet normal 1 0 0
    outer loop
      vertex 141.7 2.7 0
      vertex 141.7 0 3
      vertex 141.7 0 0
    endloop
  endfacet
  facet normal 0 0 -1
    outer loop
      vertex 144.7 -3 3
      vertex 141.7 0 3
      vertex 144.7 5.7 3
    endloop
  endfacet
  facet normal 0 0 -1
    outer loop
      vertex 144.7 -3 3
      vertex 0 0 3
      vertex 141.7 0 3
    endloop
  endfacet
  facet normal -0 0 -1
    outer loop
      vertex 0 0 3
      vertex -3 -3 3
      vertex 0 2.7 3
    endloop
  endfacet
  facet normal 0 0 -1
    outer loop
      vertex -3 -3 3
      vertex 0 0 3
      vertex 144.7 -3 3
    endloop
  endfacet
  facet normal 0 0 -1
    outer loop
      vertex 141.7 2.7 3
      vertex 144.7 5.7 3
      vertex 141.7 0 3
    endloop
  endfacet
  facet normal 0 0 -1
    outer loop
      vertex 0 2.7 3
      vertex 144.7 5.7 3
      vertex 141.7 2.7 3
    endloop
  endfacet
  facet normal 0 0 -1
    outer loop
      vertex 0 2.7 3
      vertex -3 5.7 3
      vertex 144.7 5.7 3
    endloop
  endfacet
  facet normal 0 0 -1
    outer loop
      vertex -3 5.7 3
      vertex 0 2.7 3
      vertex -3 -3 3
    endloop
  endfacet
  facet normal 0 0 -1
    outer loop
      vertex 0 0 0
      vertex 141.7 2.7 0
      vertex 141.7 0 0
    endloop
  endfacet
  facet normal -0 0 -1
    outer loop
      vertex 141.7 2.7 0
      vertex 0 0 0
      vertex 0 2.7 0
    endloop
  endfacet
  facet normal -1 0 0
    outer loop
      vertex 0 0 0
      vertex 0 2.7 3
      vertex 0 2.7 0
    endloop
  endfacet
  facet normal -1 -0 0
    outer loop
      vertex 0 2.7 3
      vertex 0 0 0
      vertex 0 0 3
    endloop
  endfacet
  facet normal 0 1 -0
    outer loop
      vertex 141.7 2.7 0
      vertex 0 2.7 3
      vertex 141.7 2.7 3
    endloop
  endfacet
  facet normal 0 1 0
    outer loop
      vertex 0 2.7 3
      vertex 141.7 2.7 0
      vertex 0 2.7 0
    endloop
  endfacet
  facet normal 0 -1 0
    outer loop
      vertex 0 0 0
      vertex 141.7 0 3
      vertex 0 0 3
    endloop
  endfacet
  facet normal 0 -1 -0
    outer loop
      vertex 141.7 0 3
      vertex 0 0 0
      vertex 141.7 0 0
    endloop
  endfacet
  facet normal 1 -0 0
    outer loop
      vertex 144.7 -3 4.2
      vertex 144.7 5.7 3
      vertex 144.7 5.7 4.2
    endloop
  endfacet
  facet normal 1 0 0
    outer loop
      vertex 144.7 5.7 3
      vertex 144.7 -3 4.2
      vertex 144.7 -3 3
    endloop
  endfacet
  facet normal -0 0 1
    outer loop
      vertex -3 5.7 4.2
      vertex 144.7 -3 4.2
      vertex 144.7 5.7 4.2
    endloop
  endfacet
  facet normal 0 0 1
    outer loop
      vertex 144.7 -3 4.2
      vertex -3 5.7 4.2
      vertex -3 -3 4.2
    endloop
  endfacet
  facet normal -1 0 0
    outer loop
      vertex -3 -3 3
      vertex -3 5.7 4.2
      vertex -3 5.7 3
    endloop
  endfacet
  facet normal -1 -0 0
    outer loop
      vertex -3 5.7 4.2
      vertex -3 -3 3
      vertex -3 -3 4.2
    endloop
  endfacet
  facet normal 0 1 -0
    outer loop
      vertex 144.7 5.7 3
      vertex -3 5.7 4.2
      vertex 144.7 5.7 4.2
    endloop
  endfacet
  facet normal 0 1 0
    outer loop
      vertex -3 5.7 4.2
      vertex 144.7 5.7 3
      vertex -3 5.7 3
    endloop
  endfacet
  facet normal 0 -1 0
    outer loop
      vertex -3 -3 3
      vertex 144.7 -3 4.2
      vertex -3 -3 4.2
    endloop
  endfacet
  facet normal 0 -1 -0
    outer loop
      vertex 144.7 -3 4.2
      vertex -3 -3 3
      vertex 144.7 -3 3
    endloop
  endfacet
endsolid OpenSCAD_Model
