solid OpenSCAD_Model
  facet normal -0.972368 0.233453 0
    outer loop
      vertex 1.14127 -7.37082 0
      vertex 1.18523 -7.18772 2
      vertex 1.18523 -7.18772 0
    endloop
  endfacet
  facet normal -0.972368 0.233453 0
    outer loop
      vertex 1.18523 -7.18772 2
      vertex 1.14127 -7.37082 0
      vertex 1.14127 -7.37082 2
    endloop
  endfacet
  facet normal -0.0784382 0.996919 0
    outer loop
      vertex 0.187721 -8.18523 0
      vertex 0 -8.2 2
      vertex 0.187721 -8.18523 2
    endloop
  endfacet
  facet normal -0.0784382 0.996919 0
    outer loop
      vertex 0 -8.2 2
      vertex 0.187721 -8.18523 0
      vertex 0 -8.2 0
    endloop
  endfacet
  facet normal -0.972368 -0.233453 0
    outer loop
      vertex 1.18523 -6.81228 0
      vertex 1.14127 -6.62918 2
      vertex 1.14127 -6.62918 0
    endloop
  endfacet
  facet normal -0.972368 -0.233453 0
    outer loop
      vertex 1.14127 -6.62918 2
      vertex 1.18523 -6.81228 0
      vertex 1.18523 -6.81228 2
    endloop
  endfacet
  facet normal -0.996919 -0.0784386 0
    outer loop
      vertex 1.2 -7 0
      vertex 1.18523 -6.81228 2
      vertex 1.18523 -6.81228 0
    endloop
  endfacet
  facet normal -0.996919 -0.0784386 0
    outer loop
      vertex 1.18523 -6.81228 2
      vertex 1.2 -7 0
      vertex 1.2 -7 2
    endloop
  endfacet
  facet normal -0.923881 -0.38268 0
    outer loop
      vertex 1.14127 -6.62918 0
      vertex 1.06921 -6.45521 2
      vertex 1.06921 -6.45521 0
    endloop
  endfacet
  facet normal -0.923881 -0.38268 0
    outer loop
      vertex 1.06921 -6.45521 2
      vertex 1.14127 -6.62918 0
      vertex 1.14127 -6.62918 2
    endloop
  endfacet
  facet normal 0.760419 -0.649433 0
    outer loop
      vertex -0.970819 -6.29466 2
      vertex -0.848528 -6.15147 0
      vertex -0.848528 -6.15147 2
    endloop
  endfacet
  facet normal 0.760419 -0.649433 0
    outer loop
      vertex -0.848528 -6.15147 0
      vertex -0.970819 -6.29466 2
      vertex -0.970819 -6.29466 0
    endloop
  endfacet
  facet normal 0.972368 0.233453 0
    outer loop
      vertex -1.14127 -7.37082 2
      vertex -1.18523 -7.18772 0
      vertex -1.18523 -7.18772 2
    endloop
  endfacet
  facet normal 0.972368 0.233453 0
    outer loop
      vertex -1.18523 -7.18772 0
      vertex -1.14127 -7.37082 2
      vertex -1.14127 -7.37082 0
    endloop
  endfacet
  facet normal -0.852626 0.522521 0
    outer loop
      vertex 0.970819 -7.70534 0
      vertex 1.06921 -7.54479 2
      vertex 1.06921 -7.54479 0
    endloop
  endfacet
  facet normal -0.852626 0.522521 0
    outer loop
      vertex 1.06921 -7.54479 2
      vertex 0.970819 -7.70534 0
      vertex 0.970819 -7.70534 2
    endloop
  endfacet
  facet normal 0.382684 -0.923879 0
    outer loop
      vertex -0.544788 -5.93079 0
      vertex -0.37082 -5.85873 2
      vertex -0.544788 -5.93079 2
    endloop
  endfacet
  facet normal 0.382684 -0.923879 0
    outer loop
      vertex -0.37082 -5.85873 2
      vertex -0.544788 -5.93079 0
      vertex -0.37082 -5.85873 0
    endloop
  endfacet
  facet normal -0.760419 0.649433 0
    outer loop
      vertex 0.848528 -7.84853 0
      vertex 0.970819 -7.70534 2
      vertex 0.970819 -7.70534 0
    endloop
  endfacet
  facet normal -0.760419 0.649433 0
    outer loop
      vertex 0.970819 -7.70534 2
      vertex 0.848528 -7.84853 0
      vertex 0.848528 -7.84853 2
    endloop
  endfacet
  facet normal -0.923881 0.38268 0
    outer loop
      vertex 1.06921 -7.54479 0
      vertex 1.14127 -7.37082 2
      vertex 1.14127 -7.37082 0
    endloop
  endfacet
  facet normal -0.923881 0.38268 0
    outer loop
      vertex 1.14127 -7.37082 2
      vertex 1.06921 -7.54479 0
      vertex 1.06921 -7.54479 2
    endloop
  endfacet
  facet normal 0.972368 -0.233453 0
    outer loop
      vertex -1.18523 -6.81228 2
      vertex -1.14127 -6.62918 0
      vertex -1.14127 -6.62918 2
    endloop
  endfacet
  facet normal 0.972368 -0.233453 0
    outer loop
      vertex -1.14127 -6.62918 0
      vertex -1.18523 -6.81228 2
      vertex -1.18523 -6.81228 0
    endloop
  endfacet
  facet normal 0.996919 -0.0784386 0
    outer loop
      vertex -1.2 -7 2
      vertex -1.18523 -6.81228 0
      vertex -1.18523 -6.81228 2
    endloop
  endfacet
  facet normal 0.996919 -0.0784386 0
    outer loop
      vertex -1.18523 -6.81228 0
      vertex -1.2 -7 2
      vertex -1.2 -7 0
    endloop
  endfacet
  facet normal 0.996919 0.0784386 0
    outer loop
      vertex -1.18523 -7.18772 2
      vertex -1.2 -7 0
      vertex -1.2 -7 2
    endloop
  endfacet
  facet normal 0.996919 0.0784386 0
    outer loop
      vertex -1.2 -7 0
      vertex -1.18523 -7.18772 2
      vertex -1.18523 -7.18772 0
    endloop
  endfacet
  facet normal -0.233454 0.972368 0
    outer loop
      vertex 0.37082 -8.14127 0
      vertex 0.187721 -8.18523 2
      vertex 0.37082 -8.14127 2
    endloop
  endfacet
  facet normal -0.233454 0.972368 0
    outer loop
      vertex 0.187721 -8.18523 2
      vertex 0.37082 -8.14127 0
      vertex 0.187721 -8.18523 0
    endloop
  endfacet
  facet normal 0.852626 -0.522521 0
    outer loop
      vertex -1.06921 -6.45521 2
      vertex -0.970819 -6.29466 0
      vertex -0.970819 -6.29466 2
    endloop
  endfacet
  facet normal 0.852626 -0.522521 0
    outer loop
      vertex -0.970819 -6.29466 0
      vertex -1.06921 -6.45521 2
      vertex -1.06921 -6.45521 0
    endloop
  endfacet
  facet normal 0.522508 0.852635 -0
    outer loop
      vertex -0.544788 -8.06921 0
      vertex -0.705342 -7.97082 2
      vertex -0.544788 -8.06921 2
    endloop
  endfacet
  facet normal 0.522508 0.852635 0
    outer loop
      vertex -0.705342 -7.97082 2
      vertex -0.544788 -8.06921 0
      vertex -0.705342 -7.97082 0
    endloop
  endfacet
  facet normal 0.0784382 0.996919 -0
    outer loop
      vertex 0 -8.2 0
      vertex -0.187721 -8.18523 2
      vertex 0 -8.2 2
    endloop
  endfacet
  facet normal 0.0784382 0.996919 0
    outer loop
      vertex -0.187721 -8.18523 2
      vertex 0 -8.2 0
      vertex -0.187721 -8.18523 0
    endloop
  endfacet
  facet normal 0.852626 0.522521 0
    outer loop
      vertex -0.970819 -7.70534 2
      vertex -1.06921 -7.54479 0
      vertex -1.06921 -7.54479 2
    endloop
  endfacet
  facet normal 0.852626 0.522521 0
    outer loop
      vertex -1.06921 -7.54479 0
      vertex -0.970819 -7.70534 2
      vertex -0.970819 -7.70534 0
    endloop
  endfacet
  facet normal -0.852626 -0.522521 0
    outer loop
      vertex 1.06921 -6.45521 0
      vertex 0.970819 -6.29466 2
      vertex 0.970819 -6.29466 0
    endloop
  endfacet
  facet normal -0.852626 -0.522521 0
    outer loop
      vertex 0.970819 -6.29466 2
      vertex 1.06921 -6.45521 0
      vertex 1.06921 -6.45521 2
    endloop
  endfacet
  facet normal -0.382684 -0.923879 0
    outer loop
      vertex 0.37082 -5.85873 0
      vertex 0.544788 -5.93079 2
      vertex 0.37082 -5.85873 2
    endloop
  endfacet
  facet normal -0.382684 -0.923879 -0
    outer loop
      vertex 0.544788 -5.93079 2
      vertex 0.37082 -5.85873 0
      vertex 0.544788 -5.93079 0
    endloop
  endfacet
  facet normal -0.760419 -0.649433 0
    outer loop
      vertex 0.970819 -6.29466 0
      vertex 0.848528 -6.15147 2
      vertex 0.848528 -6.15147 0
    endloop
  endfacet
  facet normal -0.760419 -0.649433 0
    outer loop
      vertex 0.848528 -6.15147 2
      vertex 0.970819 -6.29466 0
      vertex 0.970819 -6.29466 2
    endloop
  endfacet
  facet normal 0.522508 -0.852635 0
    outer loop
      vertex -0.705342 -6.02918 0
      vertex -0.544788 -5.93079 2
      vertex -0.705342 -6.02918 2
    endloop
  endfacet
  facet normal 0.522508 -0.852635 0
    outer loop
      vertex -0.544788 -5.93079 2
      vertex -0.705342 -6.02918 0
      vertex -0.544788 -5.93079 0
    endloop
  endfacet
  facet normal -0.0784382 -0.996919 0
    outer loop
      vertex 0 -5.8 0
      vertex 0.187721 -5.81477 2
      vertex 0 -5.8 2
    endloop
  endfacet
  facet normal -0.0784382 -0.996919 -0
    outer loop
      vertex 0.187721 -5.81477 2
      vertex 0 -5.8 0
      vertex 0.187721 -5.81477 0
    endloop
  endfacet
  facet normal -0.996919 0.0784386 0
    outer loop
      vertex 1.18523 -7.18772 0
      vertex 1.2 -7 2
      vertex 1.2 -7 0
    endloop
  endfacet
  facet normal -0.996919 0.0784386 0
    outer loop
      vertex 1.2 -7 2
      vertex 1.18523 -7.18772 0
      vertex 1.18523 -7.18772 2
    endloop
  endfacet
  facet normal 0.233454 -0.972368 0
    outer loop
      vertex -0.37082 -5.85873 0
      vertex -0.187721 -5.81477 2
      vertex -0.37082 -5.85873 2
    endloop
  endfacet
  facet normal 0.233454 -0.972368 0
    outer loop
      vertex -0.187721 -5.81477 2
      vertex -0.37082 -5.85873 0
      vertex -0.187721 -5.81477 0
    endloop
  endfacet
  facet normal 0.649441 -0.760412 0
    outer loop
      vertex -0.848528 -6.15147 0
      vertex -0.705342 -6.02918 2
      vertex -0.848528 -6.15147 2
    endloop
  endfacet
  facet normal 0.649441 -0.760412 0
    outer loop
      vertex -0.705342 -6.02918 2
      vertex -0.848528 -6.15147 0
      vertex -0.705342 -6.02918 0
    endloop
  endfacet
  facet normal 0.0784382 -0.996919 0
    outer loop
      vertex -0.187721 -5.81477 0
      vertex 0 -5.8 2
      vertex -0.187721 -5.81477 2
    endloop
  endfacet
  facet normal 0.0784382 -0.996919 0
    outer loop
      vertex 0 -5.8 2
      vertex -0.187721 -5.81477 0
      vertex 0 -5.8 0
    endloop
  endfacet
  facet normal 0.923881 0.38268 0
    outer loop
      vertex -1.06921 -7.54479 2
      vertex -1.14127 -7.37082 0
      vertex -1.14127 -7.37082 2
    endloop
  endfacet
  facet normal 0.923881 0.38268 0
    outer loop
      vertex -1.14127 -7.37082 0
      vertex -1.06921 -7.54479 2
      vertex -1.06921 -7.54479 0
    endloop
  endfacet
  facet normal 0.649441 0.760412 -0
    outer loop
      vertex -0.705342 -7.97082 0
      vertex -0.848528 -7.84853 2
      vertex -0.705342 -7.97082 2
    endloop
  endfacet
  facet normal 0.649441 0.760412 0
    outer loop
      vertex -0.848528 -7.84853 2
      vertex -0.705342 -7.97082 0
      vertex -0.848528 -7.84853 0
    endloop
  endfacet
  facet normal 0.382684 0.923879 -0
    outer loop
      vertex -0.37082 -8.14127 0
      vertex -0.544788 -8.06921 2
      vertex -0.37082 -8.14127 2
    endloop
  endfacet
  facet normal 0.382684 0.923879 0
    outer loop
      vertex -0.544788 -8.06921 2
      vertex -0.37082 -8.14127 0
      vertex -0.544788 -8.06921 0
    endloop
  endfacet
  facet normal -0.382684 0.923879 0
    outer loop
      vertex 0.544788 -8.06921 0
      vertex 0.37082 -8.14127 2
      vertex 0.544788 -8.06921 2
    endloop
  endfacet
  facet normal -0.382684 0.923879 0
    outer loop
      vertex 0.37082 -8.14127 2
      vertex 0.544788 -8.06921 0
      vertex 0.37082 -8.14127 0
    endloop
  endfacet
  facet normal -0.233454 -0.972368 0
    outer loop
      vertex 0.187721 -5.81477 0
      vertex 0.37082 -5.85873 2
      vertex 0.187721 -5.81477 2
    endloop
  endfacet
  facet normal -0.233454 -0.972368 -0
    outer loop
      vertex 0.37082 -5.85873 2
      vertex 0.187721 -5.81477 0
      vertex 0.37082 -5.85873 0
    endloop
  endfacet
  facet normal -0.522508 -0.852635 0
    outer loop
      vertex 0.544788 -5.93079 0
      vertex 0.705342 -6.02918 2
      vertex 0.544788 -5.93079 2
    endloop
  endfacet
  facet normal -0.522508 -0.852635 -0
    outer loop
      vertex 0.705342 -6.02918 2
      vertex 0.544788 -5.93079 0
      vertex 0.705342 -6.02918 0
    endloop
  endfacet
  facet normal 0.923881 -0.38268 0
    outer loop
      vertex -1.14127 -6.62918 2
      vertex -1.06921 -6.45521 0
      vertex -1.06921 -6.45521 2
    endloop
  endfacet
  facet normal 0.923881 -0.38268 0
    outer loop
      vertex -1.06921 -6.45521 0
      vertex -1.14127 -6.62918 2
      vertex -1.14127 -6.62918 0
    endloop
  endfacet
  facet normal -0.649441 -0.760412 0
    outer loop
      vertex 0.705342 -6.02918 0
      vertex 0.848528 -6.15147 2
      vertex 0.705342 -6.02918 2
    endloop
  endfacet
  facet normal -0.649441 -0.760412 -0
    outer loop
      vertex 0.848528 -6.15147 2
      vertex 0.705342 -6.02918 0
      vertex 0.848528 -6.15147 0
    endloop
  endfacet
  facet normal 0.760419 0.649433 0
    outer loop
      vertex -0.848528 -7.84853 2
      vertex -0.970819 -7.70534 0
      vertex -0.970819 -7.70534 2
    endloop
  endfacet
  facet normal 0.760419 0.649433 0
    outer loop
      vertex -0.970819 -7.70534 0
      vertex -0.848528 -7.84853 2
      vertex -0.848528 -7.84853 0
    endloop
  endfacet
  facet normal 0.233454 0.972368 -0
    outer loop
      vertex -0.187721 -8.18523 0
      vertex -0.37082 -8.14127 2
      vertex -0.187721 -8.18523 2
    endloop
  endfacet
  facet normal 0.233454 0.972368 0
    outer loop
      vertex -0.37082 -8.14127 2
      vertex -0.187721 -8.18523 0
      vertex -0.37082 -8.14127 0
    endloop
  endfacet
  facet normal -0.649441 0.760412 0
    outer loop
      vertex 0.848528 -7.84853 0
      vertex 0.705342 -7.97082 2
      vertex 0.848528 -7.84853 2
    endloop
  endfacet
  facet normal -0.649441 0.760412 0
    outer loop
      vertex 0.705342 -7.97082 2
      vertex 0.848528 -7.84853 0
      vertex 0.705342 -7.97082 0
    endloop
  endfacet
  facet normal -0.522508 0.852635 0
    outer loop
      vertex 0.705342 -7.97082 0
      vertex 0.544788 -8.06921 2
      vertex 0.705342 -7.97082 2
    endloop
  endfacet
  facet normal -0.522508 0.852635 0
    outer loop
      vertex 0.544788 -8.06921 2
      vertex 0.705342 -7.97082 0
      vertex 0.544788 -8.06921 0
    endloop
  endfacet
  facet normal -0.233153 -0.97244 0
    outer loop
      vertex 0.187721 48.1852 0
      vertex 0.37082 48.1413 2
      vertex 0.187721 48.1852 2
    endloop
  endfacet
  facet normal -0.233153 -0.97244 -0
    outer loop
      vertex 0.37082 48.1413 2
      vertex 0.187721 48.1852 0
      vertex 0.37082 48.1413 0
    endloop
  endfacet
  facet normal -0.972368 -0.233453 0
    outer loop
      vertex 1.18523 47.1877 0
      vertex 1.14127 47.3708 2
      vertex 1.14127 47.3708 0
    endloop
  endfacet
  facet normal -0.972368 -0.233453 0
    outer loop
      vertex 1.14127 47.3708 2
      vertex 1.18523 47.1877 0
      vertex 1.18523 47.1877 2
    endloop
  endfacet
  facet normal -0.996918 -0.0784469 0
    outer loop
      vertex 1.2 47 0
      vertex 1.18523 47.1877 2
      vertex 1.18523 47.1877 0
    endloop
  endfacet
  facet normal -0.996918 -0.0784469 0
    outer loop
      vertex 1.18523 47.1877 2
      vertex 1.2 47 0
      vertex 1.2 47 2
    endloop
  endfacet
  facet normal -0.923904 -0.382624 0
    outer loop
      vertex 1.14127 47.3708 0
      vertex 1.06921 47.5448 2
      vertex 1.06921 47.5448 0
    endloop
  endfacet
  facet normal -0.923904 -0.382624 0
    outer loop
      vertex 1.06921 47.5448 2
      vertex 1.14127 47.3708 0
      vertex 1.14127 47.3708 2
    endloop
  endfacet
  facet normal 0.996918 0.0784469 0
    outer loop
      vertex -1.18523 46.8123 2
      vertex -1.2 47 0
      vertex -1.2 47 2
    endloop
  endfacet
  facet normal 0.996918 0.0784469 0
    outer loop
      vertex -1.2 47 0
      vertex -1.18523 46.8123 2
      vertex -1.18523 46.8123 0
    endloop
  endfacet
  facet normal 0.233153 -0.97244 0
    outer loop
      vertex -0.37082 48.1413 0
      vertex -0.187721 48.1852 2
      vertex -0.37082 48.1413 2
    endloop
  endfacet
  facet normal 0.233153 -0.97244 0
    outer loop
      vertex -0.187721 48.1852 2
      vertex -0.37082 48.1413 0
      vertex -0.187721 48.1852 0
    endloop
  endfacet
  facet normal -0.233153 0.97244 0
    outer loop
      vertex 0.37082 45.8587 0
      vertex 0.187721 45.8148 2
      vertex 0.37082 45.8587 2
    endloop
  endfacet
  facet normal -0.233153 0.97244 0
    outer loop
      vertex 0.187721 45.8148 2
      vertex 0.37082 45.8587 0
      vertex 0.187721 45.8148 0
    endloop
  endfacet
  facet normal -0.972368 0.233453 0
    outer loop
      vertex 1.14127 46.6292 0
      vertex 1.18523 46.8123 2
      vertex 1.18523 46.8123 0
    endloop
  endfacet
  facet normal -0.972368 0.233453 0
    outer loop
      vertex 1.18523 46.8123 2
      vertex 1.14127 46.6292 0
      vertex 1.14127 46.6292 2
    endloop
  endfacet
  facet normal 0.996918 -0.0784469 0
    outer loop
      vertex -1.2 47 2
      vertex -1.18523 47.1877 0
      vertex -1.18523 47.1877 2
    endloop
  endfacet
  facet normal 0.996918 -0.0784469 0
    outer loop
      vertex -1.18523 47.1877 0
      vertex -1.2 47 2
      vertex -1.2 47 0
    endloop
  endfacet
  facet normal 0.760441 -0.649407 0
    outer loop
      vertex -0.970819 47.7053 2
      vertex -0.848528 47.8485 0
      vertex -0.848528 47.8485 2
    endloop
  endfacet
  facet normal 0.760441 -0.649407 0
    outer loop
      vertex -0.848528 47.8485 0
      vertex -0.970819 47.7053 2
      vertex -0.970819 47.7053 0
    endloop
  endfacet
  facet normal 0.233153 0.97244 -0
    outer loop
      vertex -0.187721 45.8148 0
      vertex -0.37082 45.8587 2
      vertex -0.187721 45.8148 2
    endloop
  endfacet
  facet normal 0.233153 0.97244 0
    outer loop
      vertex -0.37082 45.8587 2
      vertex -0.187721 45.8148 0
      vertex -0.37082 45.8587 0
    endloop
  endfacet
  facet normal -0.760441 -0.649407 0
    outer loop
      vertex 0.970819 47.7053 0
      vertex 0.848528 47.8485 2
      vertex 0.848528 47.8485 0
    endloop
  endfacet
  facet normal -0.760441 -0.649407 0
    outer loop
      vertex 0.848528 47.8485 2
      vertex 0.970819 47.7053 0
      vertex 0.970819 47.7053 2
    endloop
  endfacet
  facet normal 0.852554 -0.522639 0
    outer loop
      vertex -1.06921 47.5448 2
      vertex -0.970819 47.7053 0
      vertex -0.970819 47.7053 2
    endloop
  endfacet
  facet normal 0.852554 -0.522639 0
    outer loop
      vertex -0.970819 47.7053 0
      vertex -1.06921 47.5448 2
      vertex -1.06921 47.5448 0
    endloop
  endfacet
  facet normal -0.852554 -0.522639 0
    outer loop
      vertex 1.06921 47.5448 0
      vertex 0.970819 47.7053 2
      vertex 0.970819 47.7053 0
    endloop
  endfacet
  facet normal -0.852554 -0.522639 0
    outer loop
      vertex 0.970819 47.7053 2
      vertex 1.06921 47.5448 0
      vertex 1.06921 47.5448 2
    endloop
  endfacet
  facet normal 0.852554 0.522639 0
    outer loop
      vertex -0.970819 46.2947 2
      vertex -1.06921 46.4552 0
      vertex -1.06921 46.4552 2
    endloop
  endfacet
  facet normal 0.852554 0.522639 0
    outer loop
      vertex -1.06921 46.4552 0
      vertex -0.970819 46.2947 2
      vertex -0.970819 46.2947 0
    endloop
  endfacet
  facet normal 0.923904 0.382624 0
    outer loop
      vertex -1.06921 46.4552 2
      vertex -1.14127 46.6292 0
      vertex -1.14127 46.6292 2
    endloop
  endfacet
  facet normal 0.923904 0.382624 0
    outer loop
      vertex -1.14127 46.6292 0
      vertex -1.06921 46.4552 2
      vertex -1.06921 46.4552 0
    endloop
  endfacet
  facet normal 0.382865 -0.923804 0
    outer loop
      vertex -0.544788 48.0692 0
      vertex -0.37082 48.1413 2
      vertex -0.544788 48.0692 2
    endloop
  endfacet
  facet normal 0.382865 -0.923804 0
    outer loop
      vertex -0.37082 48.1413 2
      vertex -0.544788 48.0692 0
      vertex -0.37082 48.1413 0
    endloop
  endfacet
  facet normal -0.996918 0.0784469 0
    outer loop
      vertex 1.18523 46.8123 0
      vertex 1.2 47 2
      vertex 1.2 47 0
    endloop
  endfacet
  facet normal -0.996918 0.0784469 0
    outer loop
      vertex 1.2 47 2
      vertex 1.18523 46.8123 0
      vertex 1.18523 46.8123 2
    endloop
  endfacet
  facet normal -0.382865 -0.923804 0
    outer loop
      vertex 0.37082 48.1413 0
      vertex 0.544788 48.0692 2
      vertex 0.37082 48.1413 2
    endloop
  endfacet
  facet normal -0.382865 -0.923804 -0
    outer loop
      vertex 0.544788 48.0692 2
      vertex 0.37082 48.1413 0
      vertex 0.544788 48.0692 0
    endloop
  endfacet
  facet normal 0.649471 -0.760386 0
    outer loop
      vertex -0.848528 47.8485 0
      vertex -0.705342 47.9708 2
      vertex -0.848528 47.8485 2
    endloop
  endfacet
  facet normal 0.649471 -0.760386 0
    outer loop
      vertex -0.705342 47.9708 2
      vertex -0.848528 47.8485 0
      vertex -0.705342 47.9708 0
    endloop
  endfacet
  facet normal 0.760441 0.649407 0
    outer loop
      vertex -0.848528 46.1515 2
      vertex -0.970819 46.2947 0
      vertex -0.970819 46.2947 2
    endloop
  endfacet
  facet normal 0.760441 0.649407 0
    outer loop
      vertex -0.970819 46.2947 0
      vertex -0.848528 46.1515 2
      vertex -0.848528 46.1515 0
    endloop
  endfacet
  facet normal -0.923904 0.382624 0
    outer loop
      vertex 1.06921 46.4552 0
      vertex 1.14127 46.6292 2
      vertex 1.14127 46.6292 0
    endloop
  endfacet
  facet normal -0.923904 0.382624 0
    outer loop
      vertex 1.14127 46.6292 2
      vertex 1.06921 46.4552 0
      vertex 1.06921 46.4552 2
    endloop
  endfacet
  facet normal 0.649471 0.760386 -0
    outer loop
      vertex -0.705342 46.0292 0
      vertex -0.848528 46.1515 2
      vertex -0.705342 46.0292 2
    endloop
  endfacet
  facet normal 0.649471 0.760386 0
    outer loop
      vertex -0.848528 46.1515 2
      vertex -0.705342 46.0292 0
      vertex -0.848528 46.1515 0
    endloop
  endfacet
  facet normal 0.0785965 -0.996907 0
    outer loop
      vertex -0.187721 48.1852 0
      vertex 0 48.2 2
      vertex -0.187721 48.1852 2
    endloop
  endfacet
  facet normal 0.0785965 -0.996907 0
    outer loop
      vertex 0 48.2 2
      vertex -0.187721 48.1852 0
      vertex 0 48.2 0
    endloop
  endfacet
  facet normal -0.852554 0.522639 0
    outer loop
      vertex 0.970819 46.2947 0
      vertex 1.06921 46.4552 2
      vertex 1.06921 46.4552 0
    endloop
  endfacet
  facet normal -0.852554 0.522639 0
    outer loop
      vertex 1.06921 46.4552 2
      vertex 0.970819 46.2947 0
      vertex 0.970819 46.2947 2
    endloop
  endfacet
  facet normal -0.382865 0.923804 0
    outer loop
      vertex 0.544788 45.9308 0
      vertex 0.37082 45.8587 2
      vertex 0.544788 45.9308 2
    endloop
  endfacet
  facet normal -0.382865 0.923804 0
    outer loop
      vertex 0.37082 45.8587 2
      vertex 0.544788 45.9308 0
      vertex 0.37082 45.8587 0
    endloop
  endfacet
  facet normal -0.649471 -0.760386 0
    outer loop
      vertex 0.705342 47.9708 0
      vertex 0.848528 47.8485 2
      vertex 0.705342 47.9708 2
    endloop
  endfacet
  facet normal -0.649471 -0.760386 -0
    outer loop
      vertex 0.848528 47.8485 2
      vertex 0.705342 47.9708 0
      vertex 0.848528 47.8485 0
    endloop
  endfacet
  facet normal -0.522546 -0.852611 0
    outer loop
      vertex 0.544788 48.0692 0
      vertex 0.705342 47.9708 2
      vertex 0.544788 48.0692 2
    endloop
  endfacet
  facet normal -0.522546 -0.852611 -0
    outer loop
      vertex 0.705342 47.9708 2
      vertex 0.544788 48.0692 0
      vertex 0.705342 47.9708 0
    endloop
  endfacet
  facet normal 0.972368 0.233453 0
    outer loop
      vertex -1.14127 46.6292 2
      vertex -1.18523 46.8123 0
      vertex -1.18523 46.8123 2
    endloop
  endfacet
  facet normal 0.972368 0.233453 0
    outer loop
      vertex -1.18523 46.8123 0
      vertex -1.14127 46.6292 2
      vertex -1.14127 46.6292 0
    endloop
  endfacet
  facet normal 0.522546 -0.852611 0
    outer loop
      vertex -0.705342 47.9708 0
      vertex -0.544788 48.0692 2
      vertex -0.705342 47.9708 2
    endloop
  endfacet
  facet normal 0.522546 -0.852611 0
    outer loop
      vertex -0.544788 48.0692 2
      vertex -0.705342 47.9708 0
      vertex -0.544788 48.0692 0
    endloop
  endfacet
  facet normal -0.0785965 0.996907 0
    outer loop
      vertex 0.187721 45.8148 0
      vertex 0 45.8 2
      vertex 0.187721 45.8148 2
    endloop
  endfacet
  facet normal -0.0785965 0.996907 0
    outer loop
      vertex 0 45.8 2
      vertex 0.187721 45.8148 0
      vertex 0 45.8 0
    endloop
  endfacet
  facet normal 0.382865 0.923804 -0
    outer loop
      vertex -0.37082 45.8587 0
      vertex -0.544788 45.9308 2
      vertex -0.37082 45.8587 2
    endloop
  endfacet
  facet normal 0.382865 0.923804 0
    outer loop
      vertex -0.544788 45.9308 2
      vertex -0.37082 45.8587 0
      vertex -0.544788 45.9308 0
    endloop
  endfacet
  facet normal 0.522546 0.852611 -0
    outer loop
      vertex -0.544788 45.9308 0
      vertex -0.705342 46.0292 2
      vertex -0.544788 45.9308 2
    endloop
  endfacet
  facet normal 0.522546 0.852611 0
    outer loop
      vertex -0.705342 46.0292 2
      vertex -0.544788 45.9308 0
      vertex -0.705342 46.0292 0
    endloop
  endfacet
  facet normal 0.923904 -0.382624 0
    outer loop
      vertex -1.14127 47.3708 2
      vertex -1.06921 47.5448 0
      vertex -1.06921 47.5448 2
    endloop
  endfacet
  facet normal 0.923904 -0.382624 0
    outer loop
      vertex -1.06921 47.5448 0
      vertex -1.14127 47.3708 2
      vertex -1.14127 47.3708 0
    endloop
  endfacet
  facet normal -0.649471 0.760386 0
    outer loop
      vertex 0.848528 46.1515 0
      vertex 0.705342 46.0292 2
      vertex 0.848528 46.1515 2
    endloop
  endfacet
  facet normal -0.649471 0.760386 0
    outer loop
      vertex 0.705342 46.0292 2
      vertex 0.848528 46.1515 0
      vertex 0.705342 46.0292 0
    endloop
  endfacet
  facet normal 0.972368 -0.233453 0
    outer loop
      vertex -1.18523 47.1877 2
      vertex -1.14127 47.3708 0
      vertex -1.14127 47.3708 2
    endloop
  endfacet
  facet normal 0.972368 -0.233453 0
    outer loop
      vertex -1.14127 47.3708 0
      vertex -1.18523 47.1877 2
      vertex -1.18523 47.1877 0
    endloop
  endfacet
  facet normal -0.522546 0.852611 0
    outer loop
      vertex 0.705342 46.0292 0
      vertex 0.544788 45.9308 2
      vertex 0.705342 46.0292 2
    endloop
  endfacet
  facet normal -0.522546 0.852611 0
    outer loop
      vertex 0.544788 45.9308 2
      vertex 0.705342 46.0292 0
      vertex 0.544788 45.9308 0
    endloop
  endfacet
  facet normal -0.760441 0.649407 0
    outer loop
      vertex 0.848528 46.1515 0
      vertex 0.970819 46.2947 2
      vertex 0.970819 46.2947 0
    endloop
  endfacet
  facet normal -0.760441 0.649407 0
    outer loop
      vertex 0.970819 46.2947 2
      vertex 0.848528 46.1515 0
      vertex 0.848528 46.1515 2
    endloop
  endfacet
  facet normal -0.0785965 -0.996907 0
    outer loop
      vertex 0 48.2 0
      vertex 0.187721 48.1852 2
      vertex 0 48.2 2
    endloop
  endfacet
  facet normal -0.0785965 -0.996907 -0
    outer loop
      vertex 0.187721 48.1852 2
      vertex 0 48.2 0
      vertex 0.187721 48.1852 0
    endloop
  endfacet
  facet normal 0.0785965 0.996907 -0
    outer loop
      vertex 0 45.8 0
      vertex -0.187721 45.8148 2
      vertex 0 45.8 2
    endloop
  endfacet
  facet normal 0.0785965 0.996907 0
    outer loop
      vertex -0.187721 45.8148 2
      vertex 0 45.8 0
      vertex -0.187721 45.8148 0
    endloop
  endfacet
  facet normal -1 0 0
    outer loop
      vertex 3.1 -3.1 1
      vertex 3.1 3.1 2
      vertex 3.1 3.1 1
    endloop
  endfacet
  facet normal -1 -0 0
    outer loop
      vertex 3.1 3.1 2
      vertex 3.1 -3.1 1
      vertex 3.1 -3.1 2
    endloop
  endfacet
  facet normal 0 0 1
    outer loop
      vertex 3.1 3.1 1
      vertex -3 1 1
      vertex 3.1 -3.1 1
    endloop
  endfacet
  facet normal -0 0 1
    outer loop
      vertex -3.1 3.1 1
      vertex -3 1 1
      vertex 3.1 3.1 1
    endloop
  endfacet
  facet normal 0 0 1
    outer loop
      vertex -3 1 1
      vertex -3.1 3.1 1
      vertex -3.1 1 1
    endloop
  endfacet
  facet normal -0 0 1
    outer loop
      vertex -3 -1 1
      vertex 3.1 -3.1 1
      vertex -3 1 1
    endloop
  endfacet
  facet normal 0 0 1
    outer loop
      vertex -3.1 -3.1 1
      vertex -3 -1 1
      vertex -3.1 -1 1
    endloop
  endfacet
  facet normal 0 0 1
    outer loop
      vertex -3 -1 1
      vertex -3.1 -3.1 1
      vertex 3.1 -3.1 1
    endloop
  endfacet
  facet normal 1 -0 0
    outer loop
      vertex -3.1 -3.1 2
      vertex -3.1 -1 1
      vertex -3.1 -1 2
    endloop
  endfacet
  facet normal 1 0 0
    outer loop
      vertex -3.1 -1 1
      vertex -3.1 -3.1 2
      vertex -3.1 -3.1 1
    endloop
  endfacet
  facet normal 1 -0 0
    outer loop
      vertex -3.1 1 2
      vertex -3.1 3.1 1
      vertex -3.1 3.1 2
    endloop
  endfacet
  facet normal 1 0 0
    outer loop
      vertex -3.1 3.1 1
      vertex -3.1 1 2
      vertex -3.1 1 1
    endloop
  endfacet
  facet normal 0 -1 0
    outer loop
      vertex -3.1 3.1 1
      vertex 3.1 3.1 2
      vertex -3.1 3.1 2
    endloop
  endfacet
  facet normal 0 -1 -0
    outer loop
      vertex 3.1 3.1 2
      vertex -3.1 3.1 1
      vertex 3.1 3.1 1
    endloop
  endfacet
  facet normal 0 1 -0
    outer loop
      vertex 3.1 -3.1 1
      vertex -3.1 -3.1 2
      vertex 3.1 -3.1 2
    endloop
  endfacet
  facet normal 0 1 0
    outer loop
      vertex -3.1 -3.1 2
      vertex 3.1 -3.1 1
      vertex -3.1 -3.1 1
    endloop
  endfacet
  facet normal -1 0 0
    outer loop
      vertex 3.1 14.9 1
      vertex 3.1 21.1 2
      vertex 3.1 21.1 1
    endloop
  endfacet
  facet normal -1 -0 0
    outer loop
      vertex 3.1 21.1 2
      vertex 3.1 14.9 1
      vertex 3.1 14.9 2
    endloop
  endfacet
  facet normal 0 0 1
    outer loop
      vertex 3.1 21.1 1
      vertex -3 19 1
      vertex 3.1 14.9 1
    endloop
  endfacet
  facet normal -0 0 1
    outer loop
      vertex -3.1 21.1 1
      vertex -3 19 1
      vertex 3.1 21.1 1
    endloop
  endfacet
  facet normal 0 0 1
    outer loop
      vertex -3 19 1
      vertex -3.1 21.1 1
      vertex -3.1 19 1
    endloop
  endfacet
  facet normal -0 0 1
    outer loop
      vertex -3 17 1
      vertex 3.1 14.9 1
      vertex -3 19 1
    endloop
  endfacet
  facet normal 0 0 1
    outer loop
      vertex -3.1 14.9 1
      vertex -3 17 1
      vertex -3.1 17 1
    endloop
  endfacet
  facet normal 0 0 1
    outer loop
      vertex -3 17 1
      vertex -3.1 14.9 1
      vertex 3.1 14.9 1
    endloop
  endfacet
  facet normal 1 -0 0
    outer loop
      vertex -3.1 14.9 2
      vertex -3.1 17 1
      vertex -3.1 17 2
    endloop
  endfacet
  facet normal 1 0 0
    outer loop
      vertex -3.1 17 1
      vertex -3.1 14.9 2
      vertex -3.1 14.9 1
    endloop
  endfacet
  facet normal 1 -0 0
    outer loop
      vertex -3.1 19 2
      vertex -3.1 21.1 1
      vertex -3.1 21.1 2
    endloop
  endfacet
  facet normal 1 0 0
    outer loop
      vertex -3.1 21.1 1
      vertex -3.1 19 2
      vertex -3.1 19 1
    endloop
  endfacet
  facet normal 0 -1 0
    outer loop
      vertex -3.1 21.1 1
      vertex 3.1 21.1 2
      vertex -3.1 21.1 2
    endloop
  endfacet
  facet normal 0 -1 -0
    outer loop
      vertex 3.1 21.1 2
      vertex -3.1 21.1 1
      vertex 3.1 21.1 1
    endloop
  endfacet
  facet normal 0 1 -0
    outer loop
      vertex 3.1 14.9 1
      vertex -3.1 14.9 2
      vertex 3.1 14.9 2
    endloop
  endfacet
  facet normal 0 1 0
    outer loop
      vertex -3.1 14.9 2
      vertex 3.1 14.9 1
      vertex -3.1 14.9 1
    endloop
  endfacet
  facet normal -1 0 0
    outer loop
      vertex -3 -1 0
      vertex -3 1 1
      vertex -3 1 0
    endloop
  endfacet
  facet normal -1 -0 0
    outer loop
      vertex -3 1 1
      vertex -3 -1 0
      vertex -3 -1 1
    endloop
  endfacet
  facet normal 1 -0 0
    outer loop
      vertex -4 -1 2
      vertex -4 1 0
      vertex -4 1 2
    endloop
  endfacet
  facet normal 1 0 0
    outer loop
      vertex -4 1 0
      vertex -4 -1 2
      vertex -4 -1 0
    endloop
  endfacet
  facet normal 0 -1 0
    outer loop
      vertex -4 1 2
      vertex -3.1 1 1
      vertex -3.1 1 2
    endloop
  endfacet
  facet normal 0 -1 0
    outer loop
      vertex -4 1 0
      vertex -3.1 1 1
      vertex -4 1 2
    endloop
  endfacet
  facet normal 0 -1 0
    outer loop
      vertex -3 1 0
      vertex -3.1 1 1
      vertex -4 1 0
    endloop
  endfacet
  facet normal 0 -1 0
    outer loop
      vertex -3.1 1 1
      vertex -3 1 0
      vertex -3 1 1
    endloop
  endfacet
  facet normal 0 1 0
    outer loop
      vertex -3 -1 1
      vertex -3 -1 0
      vertex -3.1 -1 1
    endloop
  endfacet
  facet normal 0 1 -0
    outer loop
      vertex -3.1 -1 1
      vertex -4 -1 2
      vertex -3.1 -1 2
    endloop
  endfacet
  facet normal 0 1 0
    outer loop
      vertex -4 -1 0
      vertex -3.1 -1 1
      vertex -3 -1 0
    endloop
  endfacet
  facet normal 0 1 0
    outer loop
      vertex -3.1 -1 1
      vertex -4 -1 0
      vertex -4 -1 2
    endloop
  endfacet
  facet normal -1 0 0
    outer loop
      vertex -3 17 0
      vertex -3 19 1
      vertex -3 19 0
    endloop
  endfacet
  facet normal -1 -0 0
    outer loop
      vertex -3 19 1
      vertex -3 17 0
      vertex -3 17 1
    endloop
  endfacet
  facet normal 1 -0 0
    outer loop
      vertex -4 17 2
      vertex -4 19 0
      vertex -4 19 2
    endloop
  endfacet
  facet normal 1 0 0
    outer loop
      vertex -4 19 0
      vertex -4 17 2
      vertex -4 17 0
    endloop
  endfacet
  facet normal 0 -1 0
    outer loop
      vertex -4 19 2
      vertex -3.1 19 1
      vertex -3.1 19 2
    endloop
  endfacet
  facet normal 0 -1 0
    outer loop
      vertex -4 19 0
      vertex -3.1 19 1
      vertex -4 19 2
    endloop
  endfacet
  facet normal 0 -1 0
    outer loop
      vertex -3 19 0
      vertex -3.1 19 1
      vertex -4 19 0
    endloop
  endfacet
  facet normal 0 -1 0
    outer loop
      vertex -3.1 19 1
      vertex -3 19 0
      vertex -3 19 1
    endloop
  endfacet
  facet normal 0 1 0
    outer loop
      vertex -3 17 1
      vertex -3 17 0
      vertex -3.1 17 1
    endloop
  endfacet
  facet normal 0 1 -0
    outer loop
      vertex -3.1 17 1
      vertex -4 17 2
      vertex -3.1 17 2
    endloop
  endfacet
  facet normal 0 1 0
    outer loop
      vertex -4 17 0
      vertex -3.1 17 1
      vertex -3 17 0
    endloop
  endfacet
  facet normal 0 1 0
    outer loop
      vertex -3.1 17 1
      vertex -4 17 0
      vertex -4 17 2
    endloop
  endfacet
  facet normal 1 -0 0
    outer loop
      vertex 9 -9 2
      vertex 9 49 0
      vertex 9 49 2
    endloop
  endfacet
  facet normal 1 0 0
    outer loop
      vertex 9 49 0
      vertex 9 -9 2
      vertex 9 -9 0
    endloop
  endfacet
  facet normal 0 0 1
    outer loop
      vertex -3.1 -1 2
      vertex -4 -1 2
      vertex -3.1 -3.1 2
    endloop
  endfacet
  facet normal -0 0 1
    outer loop
      vertex -4 17 2
      vertex -3.1 14.9 2
      vertex -3.1 17 2
    endloop
  endfacet
  facet normal 0 0 1
    outer loop
      vertex -3.1 14.9 2
      vertex -4 17 2
      vertex -3.1 3.1 2
    endloop
  endfacet
  facet normal 0 0 1
    outer loop
      vertex -4 1 2
      vertex -3.1 3.1 2
      vertex -4 17 2
    endloop
  endfacet
  facet normal 0 0 1
    outer loop
      vertex -3.1 3.1 2
      vertex -4 1 2
      vertex -3.1 1 2
    endloop
  endfacet
  facet normal 0 0 1
    outer loop
      vertex 3.1 -3.1 2
      vertex 1.18523 -6.81228 2
      vertex 1.2 -7 2
    endloop
  endfacet
  facet normal 0 0 1
    outer loop
      vertex 3.1 -3.1 2
      vertex 1.14127 -6.62918 2
      vertex 1.18523 -6.81228 2
    endloop
  endfacet
  facet normal 0 0 1
    outer loop
      vertex 3.1 -3.1 2
      vertex 1.06921 -6.45521 2
      vertex 1.14127 -6.62918 2
    endloop
  endfacet
  facet normal 0 0 1
    outer loop
      vertex 3.1 -3.1 2
      vertex 0.970819 -6.29466 2
      vertex 1.06921 -6.45521 2
    endloop
  endfacet
  facet normal 0 0 1
    outer loop
      vertex 3.1 -3.1 2
      vertex 0.848528 -6.15147 2
      vertex 0.970819 -6.29466 2
    endloop
  endfacet
  facet normal 0 0 1
    outer loop
      vertex 3.1 -3.1 2
      vertex 0.705342 -6.02918 2
      vertex 0.848528 -6.15147 2
    endloop
  endfacet
  facet normal 0 0 1
    outer loop
      vertex 3.1 -3.1 2
      vertex 0.544788 -5.93079 2
      vertex 0.705342 -6.02918 2
    endloop
  endfacet
  facet normal 0 0 1
    outer loop
      vertex 3.1 -3.1 2
      vertex 0.37082 -5.85873 2
      vertex 0.544788 -5.93079 2
    endloop
  endfacet
  facet normal 0 0 1
    outer loop
      vertex 3.1 -3.1 2
      vertex 0.187721 -5.81477 2
      vertex 0.37082 -5.85873 2
    endloop
  endfacet
  facet normal 0 0 1
    outer loop
      vertex 3.1 -3.1 2
      vertex 0 -5.8 2
      vertex 0.187721 -5.81477 2
    endloop
  endfacet
  facet normal -0 0 1
    outer loop
      vertex -3.1 -3.1 2
      vertex 0 -5.8 2
      vertex 3.1 -3.1 2
    endloop
  endfacet
  facet normal 0 0 1
    outer loop
      vertex 0 -5.8 2
      vertex -3.1 -3.1 2
      vertex -0.187721 -5.81477 2
    endloop
  endfacet
  facet normal 0 0 1
    outer loop
      vertex -0.187721 -5.81477 2
      vertex -3.1 -3.1 2
      vertex -0.37082 -5.85873 2
    endloop
  endfacet
  facet normal 0 0 1
    outer loop
      vertex -0.37082 -5.85873 2
      vertex -3.1 -3.1 2
      vertex -0.544788 -5.93079 2
    endloop
  endfacet
  facet normal 0 0 1
    outer loop
      vertex -1.18523 -6.81228 2
      vertex -3.1 -3.1 2
      vertex -1.2 -7 2
    endloop
  endfacet
  facet normal 0 0 1
    outer loop
      vertex -1.14127 -6.62918 2
      vertex -3.1 -3.1 2
      vertex -1.18523 -6.81228 2
    endloop
  endfacet
  facet normal 0 0 1
    outer loop
      vertex -1.06921 -6.45521 2
      vertex -3.1 -3.1 2
      vertex -1.14127 -6.62918 2
    endloop
  endfacet
  facet normal 0 0 1
    outer loop
      vertex -0.970819 -6.29466 2
      vertex -3.1 -3.1 2
      vertex -1.06921 -6.45521 2
    endloop
  endfacet
  facet normal 0 0 1
    outer loop
      vertex -0.848528 -6.15147 2
      vertex -3.1 -3.1 2
      vertex -0.970819 -6.29466 2
    endloop
  endfacet
  facet normal 0 0 1
    outer loop
      vertex -0.705342 -6.02918 2
      vertex -3.1 -3.1 2
      vertex -0.848528 -6.15147 2
    endloop
  endfacet
  facet normal 0 0 1
    outer loop
      vertex -0.544788 -5.93079 2
      vertex -3.1 -3.1 2
      vertex -0.705342 -6.02918 2
    endloop
  endfacet
  facet normal -0 0 1
    outer loop
      vertex -3.1 14.9 2
      vertex 3.1 3.1 2
      vertex 3.1 14.9 2
    endloop
  endfacet
  facet normal 0 0 1
    outer loop
      vertex 3.1 3.1 2
      vertex -3.1 14.9 2
      vertex -3.1 3.1 2
    endloop
  endfacet
  facet normal 0 0 1
    outer loop
      vertex 9 49 2
      vertex 3.1 21.1 2
      vertex 9 -9 2
    endloop
  endfacet
  facet normal 0 0 1
    outer loop
      vertex 1.9 35.6 2
      vertex 9 49 2
      vertex 1.9 44.4 2
    endloop
  endfacet
  facet normal 0 0 1
    outer loop
      vertex 9 49 2
      vertex 1.2 47 2
      vertex 1.9 44.4 2
    endloop
  endfacet
  facet normal 0 0 1
    outer loop
      vertex 9 49 2
      vertex 1.18523 47.1877 2
      vertex 1.2 47 2
    endloop
  endfacet
  facet normal 0 0 1
    outer loop
      vertex 9 49 2
      vertex 1.14127 47.3708 2
      vertex 1.18523 47.1877 2
    endloop
  endfacet
  facet normal 0 0 1
    outer loop
      vertex 9 49 2
      vertex 1.06921 47.5448 2
      vertex 1.14127 47.3708 2
    endloop
  endfacet
  facet normal 0 0 1
    outer loop
      vertex 9 49 2
      vertex 0.970819 47.7053 2
      vertex 1.06921 47.5448 2
    endloop
  endfacet
  facet normal 0 0 1
    outer loop
      vertex 9 49 2
      vertex 0.848528 47.8485 2
      vertex 0.970819 47.7053 2
    endloop
  endfacet
  facet normal 0 0 1
    outer loop
      vertex 9 49 2
      vertex 0.705342 47.9708 2
      vertex 0.848528 47.8485 2
    endloop
  endfacet
  facet normal 0 0 1
    outer loop
      vertex 9 49 2
      vertex 0.544788 48.0692 2
      vertex 0.705342 47.9708 2
    endloop
  endfacet
  facet normal 0 0 1
    outer loop
      vertex 9 49 2
      vertex 0.37082 48.1413 2
      vertex 0.544788 48.0692 2
    endloop
  endfacet
  facet normal 0 0 1
    outer loop
      vertex 9 49 2
      vertex 0.187721 48.1852 2
      vertex 0.37082 48.1413 2
    endloop
  endfacet
  facet normal 0 0 1
    outer loop
      vertex 9 49 2
      vertex 0 48.2 2
      vertex 0.187721 48.1852 2
    endloop
  endfacet
  facet normal -0 0 1
    outer loop
      vertex -9 49 2
      vertex 0 48.2 2
      vertex 9 49 2
    endloop
  endfacet
  facet normal 0 0 1
    outer loop
      vertex -9 49 2
      vertex -1.2 47 2
      vertex -1.18523 47.1877 2
    endloop
  endfacet
  facet normal 0 0 1
    outer loop
      vertex -9 49 2
      vertex -1.18523 47.1877 2
      vertex -1.14127 47.3708 2
    endloop
  endfacet
  facet normal 0 0 1
    outer loop
      vertex -9 49 2
      vertex -1.9 35.6 2
      vertex -1.9 44.4 2
    endloop
  endfacet
  facet normal 0 0 1
    outer loop
      vertex -3.1 21.1 2
      vertex -4 19 2
      vertex -3.1 19 2
    endloop
  endfacet
  facet normal 0 0 1
    outer loop
      vertex -1.9 35.6 2
      vertex -9 49 2
      vertex -3.1 21.1 2
    endloop
  endfacet
  facet normal 0 0 1
    outer loop
      vertex -9 -9 2
      vertex -4 17 2
      vertex -4 19 2
    endloop
  endfacet
  facet normal 0 0 1
    outer loop
      vertex -4 17 2
      vertex -9 -9 2
      vertex -4 1 2
    endloop
  endfacet
  facet normal 0 0 1
    outer loop
      vertex -9 -9 2
      vertex -4 19 2
      vertex -9 49 2
    endloop
  endfacet
  facet normal 0 0 1
    outer loop
      vertex -3.1 21.1 2
      vertex -9 49 2
      vertex -4 19 2
    endloop
  endfacet
  facet normal 0 0 1
    outer loop
      vertex -1.2 47 2
      vertex -9 49 2
      vertex -1.9 44.4 2
    endloop
  endfacet
  facet normal 0 0 1
    outer loop
      vertex -1.06921 47.5448 2
      vertex -9 49 2
      vertex -1.14127 47.3708 2
    endloop
  endfacet
  facet normal 0 0 1
    outer loop
      vertex -0.970819 47.7053 2
      vertex -9 49 2
      vertex -1.06921 47.5448 2
    endloop
  endfacet
  facet normal 0 0 1
    outer loop
      vertex -0.848528 47.8485 2
      vertex -9 49 2
      vertex -0.970819 47.7053 2
    endloop
  endfacet
  facet normal 0 0 1
    outer loop
      vertex -0.705342 47.9708 2
      vertex -9 49 2
      vertex -0.848528 47.8485 2
    endloop
  endfacet
  facet normal 0 0 1
    outer loop
      vertex -0.544788 48.0692 2
      vertex -9 49 2
      vertex -0.705342 47.9708 2
    endloop
  endfacet
  facet normal 0 0 1
    outer loop
      vertex -0.37082 48.1413 2
      vertex -9 49 2
      vertex -0.544788 48.0692 2
    endloop
  endfacet
  facet normal 0 0 1
    outer loop
      vertex -0.187721 48.1852 2
      vertex -9 49 2
      vertex -0.37082 48.1413 2
    endloop
  endfacet
  facet normal 0 0 1
    outer loop
      vertex 0 48.2 2
      vertex -9 49 2
      vertex -0.187721 48.1852 2
    endloop
  endfacet
  facet normal -0 0 1
    outer loop
      vertex 3.1 14.9 2
      vertex 9 -9 2
      vertex 3.1 21.1 2
    endloop
  endfacet
  facet normal -0 0 1
    outer loop
      vertex 3.1 3.1 2
      vertex 9 -9 2
      vertex 3.1 14.9 2
    endloop
  endfacet
  facet normal -0 0 1
    outer loop
      vertex 3.1 -3.1 2
      vertex 9 -9 2
      vertex 3.1 3.1 2
    endloop
  endfacet
  facet normal -0 0 1
    outer loop
      vertex 1.2 -7 2
      vertex 9 -9 2
      vertex 3.1 -3.1 2
    endloop
  endfacet
  facet normal -0 0 1
    outer loop
      vertex 1.18523 -7.18772 2
      vertex 9 -9 2
      vertex 1.2 -7 2
    endloop
  endfacet
  facet normal -0 0 1
    outer loop
      vertex 1.14127 -7.37082 2
      vertex 9 -9 2
      vertex 1.18523 -7.18772 2
    endloop
  endfacet
  facet normal -0 0 1
    outer loop
      vertex 1.06921 -7.54479 2
      vertex 9 -9 2
      vertex 1.14127 -7.37082 2
    endloop
  endfacet
  facet normal -0 0 1
    outer loop
      vertex 0.970819 -7.70534 2
      vertex 9 -9 2
      vertex 1.06921 -7.54479 2
    endloop
  endfacet
  facet normal -0 0 1
    outer loop
      vertex 0.848528 -7.84853 2
      vertex 9 -9 2
      vertex 0.970819 -7.70534 2
    endloop
  endfacet
  facet normal -0 0 1
    outer loop
      vertex 0.705342 -7.97082 2
      vertex 9 -9 2
      vertex 0.848528 -7.84853 2
    endloop
  endfacet
  facet normal -0 0 1
    outer loop
      vertex 0.544788 -8.06921 2
      vertex 9 -9 2
      vertex 0.705342 -7.97082 2
    endloop
  endfacet
  facet normal -0 0 1
    outer loop
      vertex 0.37082 -8.14127 2
      vertex 9 -9 2
      vertex 0.544788 -8.06921 2
    endloop
  endfacet
  facet normal -0 0 1
    outer loop
      vertex 0.187721 -8.18523 2
      vertex 9 -9 2
      vertex 0.37082 -8.14127 2
    endloop
  endfacet
  facet normal -0 0 1
    outer loop
      vertex 0 -8.2 2
      vertex 9 -9 2
      vertex 0.187721 -8.18523 2
    endloop
  endfacet
  facet normal 0 0 1
    outer loop
      vertex -9 -9 2
      vertex 0 -8.2 2
      vertex -0.187721 -8.18523 2
    endloop
  endfacet
  facet normal 0 0 1
    outer loop
      vertex -9 -9 2
      vertex -1.2 -7 2
      vertex -3.1 -3.1 2
    endloop
  endfacet
  facet normal 0 0 1
    outer loop
      vertex -1.2 -7 2
      vertex -9 -9 2
      vertex -1.18523 -7.18772 2
    endloop
  endfacet
  facet normal 0 0 1
    outer loop
      vertex -1.18523 -7.18772 2
      vertex -9 -9 2
      vertex -1.14127 -7.37082 2
    endloop
  endfacet
  facet normal 0 0 1
    outer loop
      vertex 0 -8.2 2
      vertex -9 -9 2
      vertex 9 -9 2
    endloop
  endfacet
  facet normal 0 0 1
    outer loop
      vertex -0.37082 -8.14127 2
      vertex -9 -9 2
      vertex -0.187721 -8.18523 2
    endloop
  endfacet
  facet normal 0 0 1
    outer loop
      vertex -0.544788 -8.06921 2
      vertex -9 -9 2
      vertex -0.37082 -8.14127 2
    endloop
  endfacet
  facet normal 0 0 1
    outer loop
      vertex -0.705342 -7.97082 2
      vertex -9 -9 2
      vertex -0.544788 -8.06921 2
    endloop
  endfacet
  facet normal 0 0 1
    outer loop
      vertex -0.848528 -7.84853 2
      vertex -9 -9 2
      vertex -0.705342 -7.97082 2
    endloop
  endfacet
  facet normal 0 0 1
    outer loop
      vertex -0.970819 -7.70534 2
      vertex -9 -9 2
      vertex -0.848528 -7.84853 2
    endloop
  endfacet
  facet normal 0 0 1
    outer loop
      vertex -1.06921 -7.54479 2
      vertex -9 -9 2
      vertex -0.970819 -7.70534 2
    endloop
  endfacet
  facet normal 0 0 1
    outer loop
      vertex -1.14127 -7.37082 2
      vertex -9 -9 2
      vertex -1.06921 -7.54479 2
    endloop
  endfacet
  facet normal 0 0 1
    outer loop
      vertex -4 -1 2
      vertex -9 -9 2
      vertex -3.1 -3.1 2
    endloop
  endfacet
  facet normal 0 0 1
    outer loop
      vertex -4 1 2
      vertex -9 -9 2
      vertex -4 -1 2
    endloop
  endfacet
  facet normal 0 0 1
    outer loop
      vertex 9 49 2
      vertex 1.9 35.6 2
      vertex 3.1 21.1 2
    endloop
  endfacet
  facet normal -0 0 1
    outer loop
      vertex -1.9 35.6 2
      vertex 3.1 21.1 2
      vertex 1.9 35.6 2
    endloop
  endfacet
  facet normal 0 0 1
    outer loop
      vertex 3.1 21.1 2
      vertex -1.9 35.6 2
      vertex -3.1 21.1 2
    endloop
  endfacet
  facet normal -0 0 1
    outer loop
      vertex 1.18523 46.8123 2
      vertex 1.9 44.4 2
      vertex 1.2 47 2
    endloop
  endfacet
  facet normal -0 0 1
    outer loop
      vertex 1.14127 46.6292 2
      vertex 1.9 44.4 2
      vertex 1.18523 46.8123 2
    endloop
  endfacet
  facet normal -0 0 1
    outer loop
      vertex 1.06921 46.4552 2
      vertex 1.9 44.4 2
      vertex 1.14127 46.6292 2
    endloop
  endfacet
  facet normal -0 0 1
    outer loop
      vertex 0.970819 46.2947 2
      vertex 1.9 44.4 2
      vertex 1.06921 46.4552 2
    endloop
  endfacet
  facet normal -0 0 1
    outer loop
      vertex 0.848528 46.1515 2
      vertex 1.9 44.4 2
      vertex 0.970819 46.2947 2
    endloop
  endfacet
  facet normal -0 0 1
    outer loop
      vertex 0.705342 46.0292 2
      vertex 1.9 44.4 2
      vertex 0.848528 46.1515 2
    endloop
  endfacet
  facet normal -0 0 1
    outer loop
      vertex 0.544788 45.9308 2
      vertex 1.9 44.4 2
      vertex 0.705342 46.0292 2
    endloop
  endfacet
  facet normal -0 0 1
    outer loop
      vertex 0.37082 45.8587 2
      vertex 1.9 44.4 2
      vertex 0.544788 45.9308 2
    endloop
  endfacet
  facet normal -0 0 1
    outer loop
      vertex 0.187721 45.8148 2
      vertex 1.9 44.4 2
      vertex 0.37082 45.8587 2
    endloop
  endfacet
  facet normal -0 0 1
    outer loop
      vertex 0 45.8 2
      vertex 1.9 44.4 2
      vertex 0.187721 45.8148 2
    endloop
  endfacet
  facet normal 0 0 1
    outer loop
      vertex -1.9 44.4 2
      vertex 0 45.8 2
      vertex -0.187721 45.8148 2
    endloop
  endfacet
  facet normal 0 0 1
    outer loop
      vertex -1.9 44.4 2
      vertex -0.187721 45.8148 2
      vertex -0.37082 45.8587 2
    endloop
  endfacet
  facet normal 0 0 1
    outer loop
      vertex -1.9 44.4 2
      vertex -0.37082 45.8587 2
      vertex -0.544788 45.9308 2
    endloop
  endfacet
  facet normal 0 0 1
    outer loop
      vertex -1.9 44.4 2
      vertex -0.544788 45.9308 2
      vertex -0.705342 46.0292 2
    endloop
  endfacet
  facet normal 0 0 1
    outer loop
      vertex 0 45.8 2
      vertex -1.9 44.4 2
      vertex 1.9 44.4 2
    endloop
  endfacet
  facet normal 0 0 1
    outer loop
      vertex -0.848528 46.1515 2
      vertex -1.9 44.4 2
      vertex -0.705342 46.0292 2
    endloop
  endfacet
  facet normal 0 0 1
    outer loop
      vertex -0.970819 46.2947 2
      vertex -1.9 44.4 2
      vertex -0.848528 46.1515 2
    endloop
  endfacet
  facet normal 0 0 1
    outer loop
      vertex -1.06921 46.4552 2
      vertex -1.9 44.4 2
      vertex -0.970819 46.2947 2
    endloop
  endfacet
  facet normal 0 0 1
    outer loop
      vertex -1.14127 46.6292 2
      vertex -1.9 44.4 2
      vertex -1.06921 46.4552 2
    endloop
  endfacet
  facet normal 0 0 1
    outer loop
      vertex -1.18523 46.8123 2
      vertex -1.9 44.4 2
      vertex -1.14127 46.6292 2
    endloop
  endfacet
  facet normal 0 0 1
    outer loop
      vertex -1.9 44.4 2
      vertex -1.18523 46.8123 2
      vertex -1.2 47 2
    endloop
  endfacet
  facet normal 0 0 -1
    outer loop
      vertex -4 1 0
      vertex -3 17 0
      vertex -3 1 0
    endloop
  endfacet
  facet normal -0 0 -1
    outer loop
      vertex -3 17 0
      vertex -4 1 0
      vertex -4 17 0
    endloop
  endfacet
  facet normal 0 0 -1
    outer loop
      vertex 1.06921 -6.45521 0
      vertex 9 -9 0
      vertex 1.14127 -6.62918 0
    endloop
  endfacet
  facet normal 0 0 -1
    outer loop
      vertex 9 49 0
      vertex 1.18523 46.8123 0
      vertex 1.2 47 0
    endloop
  endfacet
  facet normal 0 0 -1
    outer loop
      vertex -3 19 0
      vertex 9 -9 0
      vertex -3 17 0
    endloop
  endfacet
  facet normal 0 0 -1
    outer loop
      vertex 9 49 0
      vertex 1.14127 46.6292 0
      vertex 1.18523 46.8123 0
    endloop
  endfacet
  facet normal 0 0 -1
    outer loop
      vertex 0.970819 -6.29466 0
      vertex 9 -9 0
      vertex 1.06921 -6.45521 0
    endloop
  endfacet
  facet normal 0 -0 -1
    outer loop
      vertex 0.705342 46.0292 0
      vertex 9 49 0
      vertex -3 19 0
    endloop
  endfacet
  facet normal 0 0 -1
    outer loop
      vertex 0.848528 -6.15147 0
      vertex 9 -9 0
      vertex 0.970819 -6.29466 0
    endloop
  endfacet
  facet normal 0 0 -1
    outer loop
      vertex 9 49 0
      vertex 1.06921 46.4552 0
      vertex 1.14127 46.6292 0
    endloop
  endfacet
  facet normal 0 0 -1
    outer loop
      vertex 9 -9 0
      vertex 0.848528 -6.15147 0
      vertex -3 1 0
    endloop
  endfacet
  facet normal 0 0 -1
    outer loop
      vertex 9 49 0
      vertex 0.970819 46.2947 0
      vertex 1.06921 46.4552 0
    endloop
  endfacet
  facet normal 0 0 -1
    outer loop
      vertex -3 1 0
      vertex 0.848528 -6.15147 0
      vertex 0.705342 -6.02918 0
    endloop
  endfacet
  facet normal 0 0 -1
    outer loop
      vertex 9 49 0
      vertex 0.848528 46.1515 0
      vertex 0.970819 46.2947 0
    endloop
  endfacet
  facet normal 0 0 -1
    outer loop
      vertex -3 1 0
      vertex 0.705342 -6.02918 0
      vertex 0.544788 -5.93079 0
    endloop
  endfacet
  facet normal 0 0 -1
    outer loop
      vertex 9 49 0
      vertex 0.705342 46.0292 0
      vertex 0.848528 46.1515 0
    endloop
  endfacet
  facet normal 0 0 -1
    outer loop
      vertex -3 -1 0
      vertex 0.544788 -5.93079 0
      vertex 0.37082 -5.85873 0
    endloop
  endfacet
  facet normal 0 0 -1
    outer loop
      vertex 0.705342 46.0292 0
      vertex -3 19 0
      vertex 0.544788 45.9308 0
    endloop
  endfacet
  facet normal 0 0 -1
    outer loop
      vertex -3 -1 0
      vertex 0.37082 -5.85873 0
      vertex 0.187721 -5.81477 0
    endloop
  endfacet
  facet normal 0 0 -1
    outer loop
      vertex 0.544788 45.9308 0
      vertex -3 19 0
      vertex 0.37082 45.8587 0
    endloop
  endfacet
  facet normal 0 0 -1
    outer loop
      vertex -3 -1 0
      vertex 0.187721 -5.81477 0
      vertex 0 -5.8 0
    endloop
  endfacet
  facet normal 0 0 -1
    outer loop
      vertex 0.37082 45.8587 0
      vertex -3 19 0
      vertex 0.187721 45.8148 0
    endloop
  endfacet
  facet normal 0 0 -1
    outer loop
      vertex -3 -1 0
      vertex 0 -5.8 0
      vertex -0.187721 -5.81477 0
    endloop
  endfacet
  facet normal 0 0 -1
    outer loop
      vertex 0.187721 45.8148 0
      vertex -3 19 0
      vertex 0 45.8 0
    endloop
  endfacet
  facet normal 0 0 -1
    outer loop
      vertex -3 -1 0
      vertex -0.187721 -5.81477 0
      vertex -0.37082 -5.85873 0
    endloop
  endfacet
  facet normal -0 0 -1
    outer loop
      vertex 0 45.8 0
      vertex -3 19 0
      vertex -0.187721 45.8148 0
    endloop
  endfacet
  facet normal 0 0 -1
    outer loop
      vertex -3 -1 0
      vertex -0.37082 -5.85873 0
      vertex -0.544788 -5.93079 0
    endloop
  endfacet
  facet normal -0 0 -1
    outer loop
      vertex -0.187721 45.8148 0
      vertex -3 19 0
      vertex -0.37082 45.8587 0
    endloop
  endfacet
  facet normal 0 0 -1
    outer loop
      vertex -3 -1 0
      vertex -0.544788 -5.93079 0
      vertex -0.705342 -6.02918 0
    endloop
  endfacet
  facet normal 0 0 -1
    outer loop
      vertex -4 19 0
      vertex -0.37082 45.8587 0
      vertex -3 19 0
    endloop
  endfacet
  facet normal 0 0 -1
    outer loop
      vertex -3 -1 0
      vertex -0.705342 -6.02918 0
      vertex -0.848528 -6.15147 0
    endloop
  endfacet
  facet normal -0 0 -1
    outer loop
      vertex -0.37082 45.8587 0
      vertex -4 19 0
      vertex -0.544788 45.9308 0
    endloop
  endfacet
  facet normal 0 0 -1
    outer loop
      vertex -3 -1 0
      vertex -0.848528 -6.15147 0
      vertex -0.970819 -6.29466 0
    endloop
  endfacet
  facet normal -0 0 -1
    outer loop
      vertex -0.544788 45.9308 0
      vertex -4 19 0
      vertex -0.705342 46.0292 0
    endloop
  endfacet
  facet normal 0 0 -1
    outer loop
      vertex -4 -1 0
      vertex -0.970819 -6.29466 0
      vertex -1.06921 -6.45521 0
    endloop
  endfacet
  facet normal 0 0 -1
    outer loop
      vertex -9 49 0
      vertex -0.705342 46.0292 0
      vertex -4 19 0
    endloop
  endfacet
  facet normal 0 0 -1
    outer loop
      vertex -4 -1 0
      vertex -1.06921 -6.45521 0
      vertex -1.14127 -6.62918 0
    endloop
  endfacet
  facet normal 0 0 -1
    outer loop
      vertex -0.705342 46.0292 0
      vertex -9 49 0
      vertex -0.848528 46.1515 0
    endloop
  endfacet
  facet normal 0 0 -1
    outer loop
      vertex -9 -9 0
      vertex -1.14127 -6.62918 0
      vertex -1.18523 -6.81228 0
    endloop
  endfacet
  facet normal 0 0 -1
    outer loop
      vertex -0.848528 46.1515 0
      vertex -9 49 0
      vertex -0.970819 46.2947 0
    endloop
  endfacet
  facet normal 0 0 -1
    outer loop
      vertex -9 -9 0
      vertex -1.18523 -6.81228 0
      vertex -1.2 -7 0
    endloop
  endfacet
  facet normal 0 0 -1
    outer loop
      vertex -0.970819 46.2947 0
      vertex -9 49 0
      vertex -1.06921 46.4552 0
    endloop
  endfacet
  facet normal 0 0 -1
    outer loop
      vertex 1.18523 -6.81228 0
      vertex 9 -9 0
      vertex 1.2 -7 0
    endloop
  endfacet
  facet normal 0 0 -1
    outer loop
      vertex 9 -9 0
      vertex 1.18523 -7.18772 0
      vertex 1.2 -7 0
    endloop
  endfacet
  facet normal 0 0 -1
    outer loop
      vertex 9 -9 0
      vertex 1.14127 -7.37082 0
      vertex 1.18523 -7.18772 0
    endloop
  endfacet
  facet normal 0 0 -1
    outer loop
      vertex 9 -9 0
      vertex 1.06921 -7.54479 0
      vertex 1.14127 -7.37082 0
    endloop
  endfacet
  facet normal 0 0 -1
    outer loop
      vertex 9 -9 0
      vertex 0.970819 -7.70534 0
      vertex 1.06921 -7.54479 0
    endloop
  endfacet
  facet normal 0 0 -1
    outer loop
      vertex 9 -9 0
      vertex 0.848528 -7.84853 0
      vertex 0.970819 -7.70534 0
    endloop
  endfacet
  facet normal 0 0 -1
    outer loop
      vertex 9 -9 0
      vertex 0.705342 -7.97082 0
      vertex 0.848528 -7.84853 0
    endloop
  endfacet
  facet normal 0 0 -1
    outer loop
      vertex 9 -9 0
      vertex 0.544788 -8.06921 0
      vertex 0.705342 -7.97082 0
    endloop
  endfacet
  facet normal 0 0 -1
    outer loop
      vertex 9 -9 0
      vertex 0.37082 -8.14127 0
      vertex 0.544788 -8.06921 0
    endloop
  endfacet
  facet normal 0 0 -1
    outer loop
      vertex 9 -9 0
      vertex 0.187721 -8.18523 0
      vertex 0.37082 -8.14127 0
    endloop
  endfacet
  facet normal 0 0 -1
    outer loop
      vertex 9 -9 0
      vertex 0 -8.2 0
      vertex 0.187721 -8.18523 0
    endloop
  endfacet
  facet normal 0 0 -1
    outer loop
      vertex -9 -9 0
      vertex 0 -8.2 0
      vertex 9 -9 0
    endloop
  endfacet
  facet normal 0 0 -1
    outer loop
      vertex 0.544788 -5.93079 0
      vertex -3 -1 0
      vertex -3 1 0
    endloop
  endfacet
  facet normal 0 0 -1
    outer loop
      vertex -9 -9 0
      vertex -1.2 -7 0
      vertex -1.18523 -7.18772 0
    endloop
  endfacet
  facet normal 0 0 -1
    outer loop
      vertex -9 -9 0
      vertex -1.18523 -7.18772 0
      vertex -1.14127 -7.37082 0
    endloop
  endfacet
  facet normal 0 0 -1
    outer loop
      vertex -0.970819 -6.29466 0
      vertex -4 -1 0
      vertex -3 -1 0
    endloop
  endfacet
  facet normal 0 0 -1
    outer loop
      vertex -9 -9 0
      vertex -1.14127 -7.37082 0
      vertex -1.06921 -7.54479 0
    endloop
  endfacet
  facet normal 0 0 -1
    outer loop
      vertex -9 -9 0
      vertex -4 1 0
      vertex -4 -1 0
    endloop
  endfacet
  facet normal -0 0 -1
    outer loop
      vertex -4 1 0
      vertex -9 -9 0
      vertex -4 17 0
    endloop
  endfacet
  facet normal -0 0 -1
    outer loop
      vertex -4 17 0
      vertex -9 -9 0
      vertex -4 19 0
    endloop
  endfacet
  facet normal -0 0 -1
    outer loop
      vertex -1.14127 -6.62918 0
      vertex -9 -9 0
      vertex -4 -1 0
    endloop
  endfacet
  facet normal -0 0 -1
    outer loop
      vertex -0.970819 -7.70534 0
      vertex -9 -9 0
      vertex -1.06921 -7.54479 0
    endloop
  endfacet
  facet normal -0 0 -1
    outer loop
      vertex -0.848528 -7.84853 0
      vertex -9 -9 0
      vertex -0.970819 -7.70534 0
    endloop
  endfacet
  facet normal -0 0 -1
    outer loop
      vertex -0.705342 -7.97082 0
      vertex -9 -9 0
      vertex -0.848528 -7.84853 0
    endloop
  endfacet
  facet normal -0 0 -1
    outer loop
      vertex -0.544788 -8.06921 0
      vertex -9 -9 0
      vertex -0.705342 -7.97082 0
    endloop
  endfacet
  facet normal -0 0 -1
    outer loop
      vertex -0.37082 -8.14127 0
      vertex -9 -9 0
      vertex -0.544788 -8.06921 0
    endloop
  endfacet
  facet normal -0 0 -1
    outer loop
      vertex -0.187721 -8.18523 0
      vertex -9 -9 0
      vertex -0.37082 -8.14127 0
    endloop
  endfacet
  facet normal -0 0 -1
    outer loop
      vertex 0 -8.2 0
      vertex -9 -9 0
      vertex -0.187721 -8.18523 0
    endloop
  endfacet
  facet normal 0 0 -1
    outer loop
      vertex 1.14127 -6.62918 0
      vertex 9 -9 0
      vertex 1.18523 -6.81228 0
    endloop
  endfacet
  facet normal 0 0 -1
    outer loop
      vertex 1.18523 47.1877 0
      vertex 9 49 0
      vertex 1.2 47 0
    endloop
  endfacet
  facet normal 0 0 -1
    outer loop
      vertex 1.14127 47.3708 0
      vertex 9 49 0
      vertex 1.18523 47.1877 0
    endloop
  endfacet
  facet normal 0 0 -1
    outer loop
      vertex 1.06921 47.5448 0
      vertex 9 49 0
      vertex 1.14127 47.3708 0
    endloop
  endfacet
  facet normal 0 0 -1
    outer loop
      vertex 0.970819 47.7053 0
      vertex 9 49 0
      vertex 1.06921 47.5448 0
    endloop
  endfacet
  facet normal 0 0 -1
    outer loop
      vertex 0.848528 47.8485 0
      vertex 9 49 0
      vertex 0.970819 47.7053 0
    endloop
  endfacet
  facet normal 0 0 -1
    outer loop
      vertex 0.705342 47.9708 0
      vertex 9 49 0
      vertex 0.848528 47.8485 0
    endloop
  endfacet
  facet normal 0 0 -1
    outer loop
      vertex 0.544788 48.0692 0
      vertex 9 49 0
      vertex 0.705342 47.9708 0
    endloop
  endfacet
  facet normal 0 0 -1
    outer loop
      vertex 0.37082 48.1413 0
      vertex 9 49 0
      vertex 0.544788 48.0692 0
    endloop
  endfacet
  facet normal 0 0 -1
    outer loop
      vertex 0.187721 48.1852 0
      vertex 9 49 0
      vertex 0.37082 48.1413 0
    endloop
  endfacet
  facet normal 0 0 -1
    outer loop
      vertex 0 48.2 0
      vertex 9 49 0
      vertex 0.187721 48.1852 0
    endloop
  endfacet
  facet normal 0 0 -1
    outer loop
      vertex -9 49 0
      vertex 0 48.2 0
      vertex -0.187721 48.1852 0
    endloop
  endfacet
  facet normal 0 0 -1
    outer loop
      vertex 9 -9 0
      vertex -3 1 0
      vertex -3 17 0
    endloop
  endfacet
  facet normal 0 0 -1
    outer loop
      vertex 9 -9 0
      vertex -3 19 0
      vertex 9 49 0
    endloop
  endfacet
  facet normal 0 0 -1
    outer loop
      vertex -1.06921 46.4552 0
      vertex -9 49 0
      vertex -1.14127 46.6292 0
    endloop
  endfacet
  facet normal 0 0 -1
    outer loop
      vertex -1.14127 46.6292 0
      vertex -9 49 0
      vertex -1.18523 46.8123 0
    endloop
  endfacet
  facet normal 0 0 -1
    outer loop
      vertex -1.18523 46.8123 0
      vertex -9 49 0
      vertex -1.2 47 0
    endloop
  endfacet
  facet normal 0 0 -1
    outer loop
      vertex -9 49 0
      vertex -4 19 0
      vertex -9 -9 0
    endloop
  endfacet
  facet normal 0 0 -1
    outer loop
      vertex 0 48.2 0
      vertex -9 49 0
      vertex 9 49 0
    endloop
  endfacet
  facet normal 0 0 -1
    outer loop
      vertex -0.37082 48.1413 0
      vertex -9 49 0
      vertex -0.187721 48.1852 0
    endloop
  endfacet
  facet normal 0 0 -1
    outer loop
      vertex -0.544788 48.0692 0
      vertex -9 49 0
      vertex -0.37082 48.1413 0
    endloop
  endfacet
  facet normal 0 0 -1
    outer loop
      vertex -0.705342 47.9708 0
      vertex -9 49 0
      vertex -0.544788 48.0692 0
    endloop
  endfacet
  facet normal 0 0 -1
    outer loop
      vertex -0.848528 47.8485 0
      vertex -9 49 0
      vertex -0.705342 47.9708 0
    endloop
  endfacet
  facet normal 0 0 -1
    outer loop
      vertex -0.970819 47.7053 0
      vertex -9 49 0
      vertex -0.848528 47.8485 0
    endloop
  endfacet
  facet normal 0 0 -1
    outer loop
      vertex -1.06921 47.5448 0
      vertex -9 49 0
      vertex -0.970819 47.7053 0
    endloop
  endfacet
  facet normal 0 0 -1
    outer loop
      vertex -1.14127 47.3708 0
      vertex -9 49 0
      vertex -1.06921 47.5448 0
    endloop
  endfacet
  facet normal 0 0 -1
    outer loop
      vertex -1.18523 47.1877 0
      vertex -9 49 0
      vertex -1.14127 47.3708 0
    endloop
  endfacet
  facet normal 0 0 -1
    outer loop
      vertex -1.2 47 0
      vertex -9 49 0
      vertex -1.18523 47.1877 0
    endloop
  endfacet
  facet normal -1 0 0
    outer loop
      vertex -9 -9 0
      vertex -9 49 2
      vertex -9 49 0
    endloop
  endfacet
  facet normal -1 -0 0
    outer loop
      vertex -9 49 2
      vertex -9 -9 0
      vertex -9 -9 2
    endloop
  endfacet
  facet normal 0 1 -0
    outer loop
      vertex 9 49 0
      vertex -9 49 2
      vertex 9 49 2
    endloop
  endfacet
  facet normal 0 1 0
    outer loop
      vertex -9 49 2
      vertex 9 49 0
      vertex -9 49 0
    endloop
  endfacet
  facet normal 0 -1 0
    outer loop
      vertex -9 -9 0
      vertex 9 -9 2
      vertex -9 -9 2
    endloop
  endfacet
  facet normal 0 -1 -0
    outer loop
      vertex 9 -9 2
      vertex -9 -9 0
      vertex 9 -9 0
    endloop
  endfacet
  facet normal -1 0 0
    outer loop
      vertex 1.9 35.6 0.599999
      vertex 1.9 44.4 2
      vertex 1.9 44.4 0.599999
    endloop
  endfacet
  facet normal -1 -0 0
    outer loop
      vertex 1.9 44.4 2
      vertex 1.9 35.6 0.599999
      vertex 1.9 35.6 2
    endloop
  endfacet
  facet normal -0 0 1
    outer loop
      vertex -1.9 44.4 0.599999
      vertex 1.9 35.6 0.599999
      vertex 1.9 44.4 0.599999
    endloop
  endfacet
  facet normal 0 0 1
    outer loop
      vertex 1.9 35.6 0.599999
      vertex -1.9 44.4 0.599999
      vertex -1.9 35.6 0.599999
    endloop
  endfacet
  facet normal 1 -0 0
    outer loop
      vertex -1.9 35.6 2
      vertex -1.9 44.4 0.599999
      vertex -1.9 44.4 2
    endloop
  endfacet
  facet normal 1 0 0
    outer loop
      vertex -1.9 44.4 0.599999
      vertex -1.9 35.6 2
      vertex -1.9 35.6 0.599999
    endloop
  endfacet
  facet normal 0 -1 0
    outer loop
      vertex -1.9 44.4 0.599999
      vertex 1.9 44.4 2
      vertex -1.9 44.4 2
    endloop
  endfacet
  facet normal 0 -1 -0
    outer loop
      vertex 1.9 44.4 2
      vertex -1.9 44.4 0.599999
      vertex 1.9 44.4 0.599999
    endloop
  endfacet
  facet normal 0 1 -0
    outer loop
      vertex 1.9 35.6 0.599999
      vertex -1.9 35.6 2
      vertex 1.9 35.6 2
    endloop
  endfacet
  facet normal 0 1 0
    outer loop
      vertex -1.9 35.6 2
      vertex 1.9 35.6 0.599999
      vertex -1.9 35.6 0.599999
    endloop
  endfacet
endsolid OpenSCAD_Model
