solid OpenSCAD_Model
  facet normal 1 0 0
    outer loop
      vertex 30 3 50
      vertex 30 0 50
      vertex 30 3 2
    endloop
  endfacet
  facet normal 1 -0 0
    outer loop
      vertex 30 3 2
      vertex 30 25 0
      vertex 30 25 2
    endloop
  endfacet
  facet normal 1 0 0
    outer loop
      vertex 30 3 2
      vertex 30 0 0
      vertex 30 25 0
    endloop
  endfacet
  facet normal 1 0 0
    outer loop
      vertex 30 0 0
      vertex 30 3 2
      vertex 30 0 50
    endloop
  endfacet
  facet normal 0 0 1
    outer loop
      vertex 20 10.5 50
      vertex 18.5 9 50
      vertex 20 3 50
    endloop
  endfacet
  facet normal 0 0 1
    outer loop
      vertex 20 10.5 50
      vertex 11.5 9 50
      vertex 18.5 9 50
    endloop
  endfacet
  facet normal 0 0 1
    outer loop
      vertex 10 3 50
      vertex 11.5 9 50
      vertex 10 10.5 50
    endloop
  endfacet
  facet normal -0 0 1
    outer loop
      vertex 10 10.5 50
      vertex 11.5 9 50
      vertex 20 10.5 50
    endloop
  endfacet
  facet normal -0 0 1
    outer loop
      vertex 20 3 50
      vertex 30 0 50
      vertex 30 3 50
    endloop
  endfacet
  facet normal 0 0 1
    outer loop
      vertex 18.5 2.99 50
      vertex 20 3 50
      vertex 18.5 9 50
    endloop
  endfacet
  facet normal 0 0 1
    outer loop
      vertex 17 0 50
      vertex 20 3 50
      vertex 18.5 2.99 50
    endloop
  endfacet
  facet normal 0 0 1
    outer loop
      vertex 17 0 50
      vertex 18.5 2.99 50
      vertex 17 2.99 50
    endloop
  endfacet
  facet normal 0 0 1
    outer loop
      vertex 20 3 50
      vertex 17 0 50
      vertex 30 0 50
    endloop
  endfacet
  facet normal -0 0 1
    outer loop
      vertex 11.5 2.99 50
      vertex 13 0 50
      vertex 13 2.99 50
    endloop
  endfacet
  facet normal 0 0 1
    outer loop
      vertex 11.5 9 50
      vertex 10 3 50
      vertex 11.5 2.99 50
    endloop
  endfacet
  facet normal 0 0 1
    outer loop
      vertex 10 3 50
      vertex 13 0 50
      vertex 11.5 2.99 50
    endloop
  endfacet
  facet normal 0 0 1
    outer loop
      vertex 0 0 50
      vertex 10 3 50
      vertex 0 3 50
    endloop
  endfacet
  facet normal 0 0 1
    outer loop
      vertex 10 3 50
      vertex 0 0 50
      vertex 13 0 50
    endloop
  endfacet
  facet normal 0 0 -1
    outer loop
      vertex 0 0 0
      vertex 30 25 0
      vertex 30 0 0
    endloop
  endfacet
  facet normal -0 0 -1
    outer loop
      vertex 30 25 0
      vertex 0 0 0
      vertex 0 25 0
    endloop
  endfacet
  facet normal -1 0 0
    outer loop
      vertex 0 25 0
      vertex 0 3 2
      vertex 0 25 2
    endloop
  endfacet
  facet normal -1 0 0
    outer loop
      vertex 0 0 0
      vertex 0 3 2
      vertex 0 25 0
    endloop
  endfacet
  facet normal -1 0 0
    outer loop
      vertex 0 0 50
      vertex 0 3 2
      vertex 0 0 0
    endloop
  endfacet
  facet normal -1 0 0
    outer loop
      vertex 0 3 2
      vertex 0 0 50
      vertex 0 3 50
    endloop
  endfacet
  facet normal 0 1 -0
    outer loop
      vertex 10 3 2
      vertex 0 3 50
      vertex 10 3 50
    endloop
  endfacet
  facet normal 0 1 0
    outer loop
      vertex 0 3 50
      vertex 10 3 2
      vertex 0 3 2
    endloop
  endfacet
  facet normal 0 1 -0
    outer loop
      vertex 30 3 2
      vertex 20 3 50
      vertex 30 3 50
    endloop
  endfacet
  facet normal 0 1 0
    outer loop
      vertex 20 3 50
      vertex 30 3 2
      vertex 20 3 2
    endloop
  endfacet
  facet normal 0 -1 0
    outer loop
      vertex 0 0 50
      vertex 13 0 5
      vertex 13 0 50
    endloop
  endfacet
  facet normal 0 -1 -0
    outer loop
      vertex 13 0 5
      vertex 0 0 0
      vertex 17 0 5
    endloop
  endfacet
  facet normal 0 -1 0
    outer loop
      vertex 0 0 0
      vertex 13 0 5
      vertex 0 0 50
    endloop
  endfacet
  facet normal 0 -1 0
    outer loop
      vertex 17 0 5
      vertex 30 0 50
      vertex 17 0 50
    endloop
  endfacet
  facet normal 0 -1 0
    outer loop
      vertex 17 0 5
      vertex 30 0 0
      vertex 30 0 50
    endloop
  endfacet
  facet normal 0 -1 0
    outer loop
      vertex 30 0 0
      vertex 17 0 5
      vertex 0 0 0
    endloop
  endfacet
  facet normal 1 -0 0
    outer loop
      vertex 20 3 50
      vertex 20 10.5 2
      vertex 20 10.5 50
    endloop
  endfacet
  facet normal 1 0 0
    outer loop
      vertex 20 10.5 2
      vertex 20 3 50
      vertex 20 3 2
    endloop
  endfacet
  facet normal -1 0 0
    outer loop
      vertex 10 3 2
      vertex 10 10.5 50
      vertex 10 10.5 2
    endloop
  endfacet
  facet normal -1 -0 0
    outer loop
      vertex 10 10.5 50
      vertex 10 3 2
      vertex 10 3 50
    endloop
  endfacet
  facet normal 0 1 0
    outer loop
      vertex 20 10.5 50
      vertex 17 10.5 14
      vertex 10 10.5 50
    endloop
  endfacet
  facet normal 0 1 -0
    outer loop
      vertex 20 10.5 2
      vertex 17 10.5 14
      vertex 20 10.5 50
    endloop
  endfacet
  facet normal 0 1 0
    outer loop
      vertex 17 10.5 8
      vertex 20 10.5 2
      vertex 13 10.5 8
    endloop
  endfacet
  facet normal 0 1 0
    outer loop
      vertex 17 10.5 14
      vertex 20 10.5 2
      vertex 17 10.5 8
    endloop
  endfacet
  facet normal 0 1 -0
    outer loop
      vertex 13 10.5 14
      vertex 10 10.5 50
      vertex 17 10.5 14
    endloop
  endfacet
  facet normal 0 1 0
    outer loop
      vertex 10 10.5 2
      vertex 13 10.5 14
      vertex 13 10.5 8
    endloop
  endfacet
  facet normal 0 1 0
    outer loop
      vertex 13 10.5 14
      vertex 10 10.5 2
      vertex 10 10.5 50
    endloop
  endfacet
  facet normal 0 1 0
    outer loop
      vertex 10 10.5 2
      vertex 13 10.5 8
      vertex 20 10.5 2
    endloop
  endfacet
  facet normal 0 0 1
    outer loop
      vertex 30 25 2
      vertex 20 10.5 2
      vertex 30 3 2
    endloop
  endfacet
  facet normal 0 0 1
    outer loop
      vertex 30 25 2
      vertex 10 10.5 2
      vertex 20 10.5 2
    endloop
  endfacet
  facet normal -0 0 1
    outer loop
      vertex 0 25 2
      vertex 10 10.5 2
      vertex 30 25 2
    endloop
  endfacet
  facet normal 0 0 1
    outer loop
      vertex 0 3 2
      vertex 10 10.5 2
      vertex 0 25 2
    endloop
  endfacet
  facet normal 0 0 1
    outer loop
      vertex 10 10.5 2
      vertex 0 3 2
      vertex 10 3 2
    endloop
  endfacet
  facet normal 0 0 1
    outer loop
      vertex 30 3 2
      vertex 20 10.5 2
      vertex 20 3 2
    endloop
  endfacet
  facet normal 0 1 -0
    outer loop
      vertex 30 25 0
      vertex 0 25 2
      vertex 30 25 2
    endloop
  endfacet
  facet normal 0 1 0
    outer loop
      vertex 0 25 2
      vertex 30 25 0
      vertex 0 25 0
    endloop
  endfacet
  facet normal -1 0 0
    outer loop
      vertex 17 0 5
      vertex 17 2.99 50
      vertex 17 2.99 5
    endloop
  endfacet
  facet normal -1 -0 0
    outer loop
      vertex 17 2.99 50
      vertex 17 0 5
      vertex 17 0 50
    endloop
  endfacet
  facet normal -0 0 1
    outer loop
      vertex 13 2.99 5
      vertex 17 0 5
      vertex 17 2.99 5
    endloop
  endfacet
  facet normal 0 0 1
    outer loop
      vertex 17 0 5
      vertex 13 2.99 5
      vertex 13 0 5
    endloop
  endfacet
  facet normal 1 -0 0
    outer loop
      vertex 13 0 50
      vertex 13 2.99 5
      vertex 13 2.99 50
    endloop
  endfacet
  facet normal 1 0 0
    outer loop
      vertex 13 2.99 5
      vertex 13 0 50
      vertex 13 0 5
    endloop
  endfacet
  facet normal -1 0 0
    outer loop
      vertex 18.5 2.99 2
      vertex 18.5 9 50
      vertex 18.5 9 2
    endloop
  endfacet
  facet normal -1 -0 0
    outer loop
      vertex 18.5 9 50
      vertex 18.5 2.99 2
      vertex 18.5 2.99 50
    endloop
  endfacet
  facet normal -0 0 1
    outer loop
      vertex 11.5 9 2
      vertex 18.5 2.99 2
      vertex 18.5 9 2
    endloop
  endfacet
  facet normal 0 0 1
    outer loop
      vertex 18.5 2.99 2
      vertex 11.5 9 2
      vertex 11.5 2.99 2
    endloop
  endfacet
  facet normal 1 -0 0
    outer loop
      vertex 11.5 2.99 50
      vertex 11.5 9 2
      vertex 11.5 9 50
    endloop
  endfacet
  facet normal 1 0 0
    outer loop
      vertex 11.5 9 2
      vertex 11.5 2.99 50
      vertex 11.5 2.99 2
    endloop
  endfacet
  facet normal 0 -1 0
    outer loop
      vertex 11.5 9 50
      vertex 13 9 14
      vertex 18.5 9 50
    endloop
  endfacet
  facet normal 0 -1 0
    outer loop
      vertex 11.5 9 2
      vertex 13 9 14
      vertex 11.5 9 50
    endloop
  endfacet
  facet normal 0 -1 -0
    outer loop
      vertex 13 9 8
      vertex 11.5 9 2
      vertex 17 9 8
    endloop
  endfacet
  facet normal 0 -1 -0
    outer loop
      vertex 13 9 14
      vertex 11.5 9 2
      vertex 13 9 8
    endloop
  endfacet
  facet normal 0 -1 0
    outer loop
      vertex 17 9 14
      vertex 18.5 9 50
      vertex 13 9 14
    endloop
  endfacet
  facet normal 0 -1 0
    outer loop
      vertex 18.5 9 2
      vertex 17 9 14
      vertex 17 9 8
    endloop
  endfacet
  facet normal 0 -1 0
    outer loop
      vertex 17 9 14
      vertex 18.5 9 2
      vertex 18.5 9 50
    endloop
  endfacet
  facet normal 0 -1 0
    outer loop
      vertex 18.5 9 2
      vertex 17 9 8
      vertex 11.5 9 2
    endloop
  endfacet
  facet normal 0 1 0
    outer loop
      vertex 18.5 2.99 50
      vertex 17 2.99 5
      vertex 17 2.99 50
    endloop
  endfacet
  facet normal 0 1 0
    outer loop
      vertex 17 2.99 5
      vertex 18.5 2.99 2
      vertex 13 2.99 5
    endloop
  endfacet
  facet normal 0 1 -0
    outer loop
      vertex 18.5 2.99 2
      vertex 17 2.99 5
      vertex 18.5 2.99 50
    endloop
  endfacet
  facet normal 0 1 -0
    outer loop
      vertex 13 2.99 5
      vertex 11.5 2.99 50
      vertex 13 2.99 50
    endloop
  endfacet
  facet normal 0 1 0
    outer loop
      vertex 13 2.99 5
      vertex 11.5 2.99 2
      vertex 11.5 2.99 50
    endloop
  endfacet
  facet normal 0 1 0
    outer loop
      vertex 11.5 2.99 2
      vertex 13 2.99 5
      vertex 18.5 2.99 2
    endloop
  endfacet
  facet normal -1 0 0
    outer loop
      vertex 17 9 8
      vertex 17 10.5 14
      vertex 17 10.5 8
    endloop
  endfacet
  facet normal -1 -0 0
    outer loop
      vertex 17 10.5 14
      vertex 17 9 8
      vertex 17 9 14
    endloop
  endfacet
  facet normal 0 0 -1
    outer loop
      vertex 13 9 14
      vertex 17 10.5 14
      vertex 17 9 14
    endloop
  endfacet
  facet normal -0 0 -1
    outer loop
      vertex 17 10.5 14
      vertex 13 9 14
      vertex 13 10.5 14
    endloop
  endfacet
  facet normal -0 0 1
    outer loop
      vertex 13 10.5 8
      vertex 17 9 8
      vertex 17 10.5 8
    endloop
  endfacet
  facet normal 0 0 1
    outer loop
      vertex 17 9 8
      vertex 13 10.5 8
      vertex 13 9 8
    endloop
  endfacet
  facet normal 1 -0 0
    outer loop
      vertex 13 9 14
      vertex 13 10.5 8
      vertex 13 10.5 14
    endloop
  endfacet
  facet normal 1 0 0
    outer loop
      vertex 13 10.5 8
      vertex 13 9 14
      vertex 13 9 8
    endloop
  endfacet
endsolid OpenSCAD_Model
