solid OpenSCAD_Model
  facet normal 0 0.913814 0.406133
    outer loop
      vertex 13.6 6.34999 0
      vertex 2.4 6.17666 0.389999
      vertex 13.6 6.17666 0.389999
    endloop
  endfacet
  facet normal 0 0.913814 0.406133
    outer loop
      vertex 2.4 6.17666 0.389999
      vertex 13.6 6.34999 0
      vertex 2.4 6.34999 0
    endloop
  endfacet
  facet normal -0 0.913812 0.406136
    outer loop
      vertex 13.6 6.17666 0.389999
      vertex 16 5.75 1.34999
      vertex 14.6 6.17666 0.389999
    endloop
  endfacet
  facet normal 8.3806e-07 0.913813 0.406135
    outer loop
      vertex 16 6.34999 0
      vertex 14.6 6.17666 0.389999
      vertex 16 5.75 1.34999
    endloop
  endfacet
  facet normal 0 0.913814 0.406133
    outer loop
      vertex 14.6 6.17666 0.389999
      vertex 16 6.34999 0
      vertex 14.6 6.34999 0
    endloop
  endfacet
  facet normal 0 0.913812 0.406136
    outer loop
      vertex 16 5.75 1.34999
      vertex 13.6 6.17666 0.389999
      vertex 0 5.75 1.34999
    endloop
  endfacet
  facet normal -0 0.913812 0.406136
    outer loop
      vertex 2.4 6.17666 0.389999
      vertex 0 5.75 1.34999
      vertex 13.6 6.17666 0.389999
    endloop
  endfacet
  facet normal -0 0.913812 0.406136
    outer loop
      vertex 1.4 6.17666 0.389999
      vertex 0 5.75 1.34999
      vertex 2.4 6.17666 0.389999
    endloop
  endfacet
  facet normal -0 0.913814 0.406133
    outer loop
      vertex 0 6.34999 0
      vertex 1.4 6.17666 0.389999
      vertex 1.4 6.34999 0
    endloop
  endfacet
  facet normal -8.3806e-07 0.913813 0.406135
    outer loop
      vertex 1.4 6.17666 0.389999
      vertex 0 6.34999 0
      vertex 0 5.75 1.34999
    endloop
  endfacet
  facet normal 0 -0.913814 0.406133
    outer loop
      vertex 2.4 -6.34999 0
      vertex 13.6 -6.17666 0.389999
      vertex 2.4 -6.17666 0.389999
    endloop
  endfacet
  facet normal 0 -0.913814 0.406133
    outer loop
      vertex 13.6 -6.17666 0.389999
      vertex 2.4 -6.34999 0
      vertex 13.6 -6.34999 0
    endloop
  endfacet
  facet normal 0 -0.913812 0.406136
    outer loop
      vertex 2.4 -6.17666 0.389999
      vertex 0 -5.75 1.34999
      vertex 1.4 -6.17666 0.389999
    endloop
  endfacet
  facet normal -8.3806e-07 -0.913813 0.406135
    outer loop
      vertex 0 -6.34999 0
      vertex 1.4 -6.17666 0.389999
      vertex 0 -5.75 1.34999
    endloop
  endfacet
  facet normal 0 -0.913814 0.406133
    outer loop
      vertex 1.4 -6.17666 0.389999
      vertex 0 -6.34999 0
      vertex 1.4 -6.34999 0
    endloop
  endfacet
  facet normal 0 -0.913812 0.406136
    outer loop
      vertex 0 -5.75 1.34999
      vertex 2.4 -6.17666 0.389999
      vertex 16 -5.75 1.34999
    endloop
  endfacet
  facet normal 0 -0.913812 0.406136
    outer loop
      vertex 13.6 -6.17666 0.389999
      vertex 16 -5.75 1.34999
      vertex 2.4 -6.17666 0.389999
    endloop
  endfacet
  facet normal 0 -0.913812 0.406136
    outer loop
      vertex 14.6 -6.17666 0.389999
      vertex 16 -5.75 1.34999
      vertex 13.6 -6.17666 0.389999
    endloop
  endfacet
  facet normal 0 -0.913814 0.406133
    outer loop
      vertex 16 -6.34999 0
      vertex 14.6 -6.17666 0.389999
      vertex 14.6 -6.34999 0
    endloop
  endfacet
  facet normal 8.3806e-07 -0.913813 0.406135
    outer loop
      vertex 14.6 -6.17666 0.389999
      vertex 16 -6.34999 0
      vertex 16 -5.75 1.34999
    endloop
  endfacet
  facet normal 0 0 -1
    outer loop
      vertex 14.6 -6.34999 0
      vertex 16 6.34999 0
      vertex 16 -6.34999 0
    endloop
  endfacet
  facet normal -0 0 -1
    outer loop
      vertex 16 6.34999 0
      vertex 14.6 -6.34999 0
      vertex 14.6 6.34999 0
    endloop
  endfacet
  facet normal 0 0 -1
    outer loop
      vertex 0 -6.34999 0
      vertex 1.4 6.34999 0
      vertex 1.4 -6.34999 0
    endloop
  endfacet
  facet normal -0 0 -1
    outer loop
      vertex 1.4 6.34999 0
      vertex 0 -6.34999 0
      vertex 0 6.34999 0
    endloop
  endfacet
  facet normal 0 0 -1
    outer loop
      vertex 2.4 -6.34999 0
      vertex 13.6 6.34999 0
      vertex 13.6 -6.34999 0
    endloop
  endfacet
  facet normal -0 0 -1
    outer loop
      vertex 13.6 6.34999 0
      vertex 2.4 -6.34999 0
      vertex 2.4 6.34999 0
    endloop
  endfacet
  facet normal 1 -0 0
    outer loop
      vertex 16 -5.75 1.34999
      vertex 16 6.34999 0
      vertex 16 5.75 1.34999
    endloop
  endfacet
  facet normal 1 0 0
    outer loop
      vertex 16 6.34999 0
      vertex 16 -5.75 1.34999
      vertex 16 -6.34999 0
    endloop
  endfacet
  facet normal 0 0 1
    outer loop
      vertex 16 5.75 1.34999
      vertex 10 3 1.34999
      vertex 16 -5.75 1.34999
    endloop
  endfacet
  facet normal 0 0 1
    outer loop
      vertex 16 5.75 1.34999
      vertex 6 3 1.34999
      vertex 10 3 1.34999
    endloop
  endfacet
  facet normal 0 0 1
    outer loop
      vertex 6 3 1.34999
      vertex 0 5.75 1.34999
      vertex 6 -3 1.34999
    endloop
  endfacet
  facet normal -0 0 1
    outer loop
      vertex 0 5.75 1.34999
      vertex 6 3 1.34999
      vertex 16 5.75 1.34999
    endloop
  endfacet
  facet normal -0 0 1
    outer loop
      vertex 10 -3 1.34999
      vertex 16 -5.75 1.34999
      vertex 10 3 1.34999
    endloop
  endfacet
  facet normal -0 0 1
    outer loop
      vertex 6 -3 1.34999
      vertex 16 -5.75 1.34999
      vertex 10 -3 1.34999
    endloop
  endfacet
  facet normal 0 0 1
    outer loop
      vertex 6 -3 1.34999
      vertex 0 -5.75 1.34999
      vertex 16 -5.75 1.34999
    endloop
  endfacet
  facet normal 0 0 1
    outer loop
      vertex 0 -5.75 1.34999
      vertex 6 -3 1.34999
      vertex 0 5.75 1.34999
    endloop
  endfacet
  facet normal -1 0 0
    outer loop
      vertex 0 6.34999 0
      vertex 0 -5.75 1.34999
      vertex 0 5.75 1.34999
    endloop
  endfacet
  facet normal -1 0 -0
    outer loop
      vertex 0 -5.75 1.34999
      vertex 0 6.34999 0
      vertex 0 -6.34999 0
    endloop
  endfacet
  facet normal 1 -0 0
    outer loop
      vertex 10 -3 2.35
      vertex 10 3 1.34999
      vertex 10 3 2.35
    endloop
  endfacet
  facet normal 1 0 0
    outer loop
      vertex 10 3 1.34999
      vertex 10 -3 2.35
      vertex 10 -3 1.34999
    endloop
  endfacet
  facet normal -0 0 1
    outer loop
      vertex 6 3 2.35
      vertex 10 -3 2.35
      vertex 10 3 2.35
    endloop
  endfacet
  facet normal 0 0 1
    outer loop
      vertex 10 -3 2.35
      vertex 6 3 2.35
      vertex 6 -3 2.35
    endloop
  endfacet
  facet normal -1 0 0
    outer loop
      vertex 6 -3 1.34999
      vertex 6 3 2.35
      vertex 6 3 1.34999
    endloop
  endfacet
  facet normal -1 -0 0
    outer loop
      vertex 6 3 2.35
      vertex 6 -3 1.34999
      vertex 6 -3 2.35
    endloop
  endfacet
  facet normal 0 1 -0
    outer loop
      vertex 10 3 1.34999
      vertex 6 3 2.35
      vertex 10 3 2.35
    endloop
  endfacet
  facet normal 0 1 0
    outer loop
      vertex 6 3 2.35
      vertex 10 3 1.34999
      vertex 6 3 1.34999
    endloop
  endfacet
  facet normal 0 -1 0
    outer loop
      vertex 6 -3 1.34999
      vertex 10 -3 2.35
      vertex 6 -3 2.35
    endloop
  endfacet
  facet normal 0 -1 -0
    outer loop
      vertex 10 -3 2.35
      vertex 6 -3 1.34999
      vertex 10 -3 1.34999
    endloop
  endfacet
  facet normal -1 0 0
    outer loop
      vertex 2.4 6.34999 0
      vertex 2.4 -6.17666 0.389999
      vertex 2.4 6.17666 0.389999
    endloop
  endfacet
  facet normal -1 0 -0
    outer loop
      vertex 2.4 -6.17666 0.389999
      vertex 2.4 6.34999 0
      vertex 2.4 -6.34999 0
    endloop
  endfacet
  facet normal 0 0 -1
    outer loop
      vertex 1.4 -6.17666 0.389999
      vertex 2.4 6.17666 0.389999
      vertex 2.4 -6.17666 0.389999
    endloop
  endfacet
  facet normal -0 0 -1
    outer loop
      vertex 2.4 6.17666 0.389999
      vertex 1.4 -6.17666 0.389999
      vertex 1.4 6.17666 0.389999
    endloop
  endfacet
  facet normal 1 -0 0
    outer loop
      vertex 1.4 -6.17666 0.389999
      vertex 1.4 6.34999 0
      vertex 1.4 6.17666 0.389999
    endloop
  endfacet
  facet normal 1 0 0
    outer loop
      vertex 1.4 6.34999 0
      vertex 1.4 -6.17666 0.389999
      vertex 1.4 -6.34999 0
    endloop
  endfacet
  facet normal -1 0 0
    outer loop
      vertex 14.6 6.34999 0
      vertex 14.6 -6.17666 0.389999
      vertex 14.6 6.17666 0.389999
    endloop
  endfacet
  facet normal -1 0 -0
    outer loop
      vertex 14.6 -6.17666 0.389999
      vertex 14.6 6.34999 0
      vertex 14.6 -6.34999 0
    endloop
  endfacet
  facet normal 0 0 -1
    outer loop
      vertex 13.6 -6.17666 0.389999
      vertex 14.6 6.17666 0.389999
      vertex 14.6 -6.17666 0.389999
    endloop
  endfacet
  facet normal -0 0 -1
    outer loop
      vertex 14.6 6.17666 0.389999
      vertex 13.6 -6.17666 0.389999
      vertex 13.6 6.17666 0.389999
    endloop
  endfacet
  facet normal 1 -0 0
    outer loop
      vertex 13.6 -6.17666 0.389999
      vertex 13.6 6.34999 0
      vertex 13.6 6.17666 0.389999
    endloop
  endfacet
  facet normal 1 0 0
    outer loop
      vertex 13.6 6.34999 0
      vertex 13.6 -6.17666 0.389999
      vertex 13.6 -6.34999 0
    endloop
  endfacet
endsolid OpenSCAD_Model
