solid OpenSCAD_Model
  facet normal 1 0 0
    outer loop
      vertex 44 5.99628 3
      vertex 44 0 3
      vertex 44 5.40001 1.4
    endloop
  endfacet
  facet normal 1 0 0
    outer loop
      vertex 44 24 3
      vertex 44 18.6 1.4
      vertex 44 24 0
    endloop
  endfacet
  facet normal 1 0 -0
    outer loop
      vertex 44 18.6 1.4
      vertex 44 24 3
      vertex 44 18.0037 3
    endloop
  endfacet
  facet normal 1 -0 0
    outer loop
      vertex 44 5.40001 1.4
      vertex 44 24 0
      vertex 44 18.6 1.4
    endloop
  endfacet
  facet normal 1 0 0
    outer loop
      vertex 44 5.40001 1.4
      vertex 44 0 0
      vertex 44 24 0
    endloop
  endfacet
  facet normal 1 0 0
    outer loop
      vertex 44 0 0
      vertex 44 5.40001 1.4
      vertex 44 0 3
    endloop
  endfacet
  facet normal 0 0 1
    outer loop
      vertex 44 24 3
      vertex 1 18.0037 3
      vertex 44 18.0037 3
    endloop
  endfacet
  facet normal 0 0 1
    outer loop
      vertex 1 18.0037 3
      vertex 0 24 3
      vertex 1 5.99628 3
    endloop
  endfacet
  facet normal -0 0 1
    outer loop
      vertex 0 24 3
      vertex 1 18.0037 3
      vertex 44 24 3
    endloop
  endfacet
  facet normal -0 0 1
    outer loop
      vertex 1 5.99628 3
      vertex 44 0 3
      vertex 44 5.99628 3
    endloop
  endfacet
  facet normal 0 0 1
    outer loop
      vertex 1 5.99628 3
      vertex 0 0 3
      vertex 44 0 3
    endloop
  endfacet
  facet normal 0 0 1
    outer loop
      vertex 0 0 3
      vertex 1 5.99628 3
      vertex 0 24 3
    endloop
  endfacet
  facet normal 0 0 -1
    outer loop
      vertex 44 0 0
      vertex 14 12 0
      vertex 44 24 0
    endloop
  endfacet
  facet normal 0 0 -1
    outer loop
      vertex 44 0 0
      vertex 13.9658 11.4779 0
      vertex 14 12 0
    endloop
  endfacet
  facet normal 0 0 -1
    outer loop
      vertex 44 0 0
      vertex 13.8637 10.9647 0
      vertex 13.9658 11.4779 0
    endloop
  endfacet
  facet normal 0 0 -1
    outer loop
      vertex 44 0 0
      vertex 13.6955 10.4693 0
      vertex 13.8637 10.9647 0
    endloop
  endfacet
  facet normal 0 0 -1
    outer loop
      vertex 44 0 0
      vertex 13.4641 10 0
      vertex 13.6955 10.4693 0
    endloop
  endfacet
  facet normal 0 0 -1
    outer loop
      vertex 44 0 0
      vertex 13.1734 9.56495 0
      vertex 13.4641 10 0
    endloop
  endfacet
  facet normal 0 0 -1
    outer loop
      vertex 44 0 0
      vertex 12.8284 9.17157 0
      vertex 13.1734 9.56495 0
    endloop
  endfacet
  facet normal 0 0 -1
    outer loop
      vertex 44 0 0
      vertex 12.435 8.82659 0
      vertex 12.8284 9.17157 0
    endloop
  endfacet
  facet normal 0 0 -1
    outer loop
      vertex 44 0 0
      vertex 12 8.5359 0
      vertex 12.435 8.82659 0
    endloop
  endfacet
  facet normal 0 0 -1
    outer loop
      vertex 44 0 0
      vertex 11.5307 8.30448 0
      vertex 12 8.5359 0
    endloop
  endfacet
  facet normal 0 0 -1
    outer loop
      vertex 0 0 0
      vertex 11.5307 8.30448 0
      vertex 44 0 0
    endloop
  endfacet
  facet normal 0 0 -1
    outer loop
      vertex 11.5307 8.30448 0
      vertex 0 0 0
      vertex 11.0353 8.1363 0
    endloop
  endfacet
  facet normal 0 0 -1
    outer loop
      vertex 11.0353 8.1363 0
      vertex 0 0 0
      vertex 10.5221 8.03422 0
    endloop
  endfacet
  facet normal 0 0 -1
    outer loop
      vertex 10.5221 8.03422 0
      vertex 0 0 0
      vertex 10 8 0
    endloop
  endfacet
  facet normal -0 0 -1
    outer loop
      vertex 10 8 0
      vertex 0 0 0
      vertex 9.47789 8.03422 0
    endloop
  endfacet
  facet normal -0 0 -1
    outer loop
      vertex 6.03422 11.4779 0
      vertex 0 0 0
      vertex 6 12 0
    endloop
  endfacet
  facet normal -0 0 -1
    outer loop
      vertex 6.1363 10.9647 0
      vertex 0 0 0
      vertex 6.03422 11.4779 0
    endloop
  endfacet
  facet normal -0 0 -1
    outer loop
      vertex 6.30448 10.4693 0
      vertex 0 0 0
      vertex 6.1363 10.9647 0
    endloop
  endfacet
  facet normal -0 0 -1
    outer loop
      vertex 6.5359 10 0
      vertex 0 0 0
      vertex 6.30448 10.4693 0
    endloop
  endfacet
  facet normal -0 0 -1
    outer loop
      vertex 6.82659 9.56495 0
      vertex 0 0 0
      vertex 6.5359 10 0
    endloop
  endfacet
  facet normal -0 0 -1
    outer loop
      vertex 7.17157 9.17157 0
      vertex 0 0 0
      vertex 6.82659 9.56495 0
    endloop
  endfacet
  facet normal -0 0 -1
    outer loop
      vertex 7.56495 8.82659 0
      vertex 0 0 0
      vertex 7.17157 9.17157 0
    endloop
  endfacet
  facet normal -0 0 -1
    outer loop
      vertex 8 8.5359 0
      vertex 0 0 0
      vertex 7.56495 8.82659 0
    endloop
  endfacet
  facet normal -0 0 -1
    outer loop
      vertex 8.46927 8.30448 0
      vertex 0 0 0
      vertex 8 8.5359 0
    endloop
  endfacet
  facet normal -0 0 -1
    outer loop
      vertex 8.96472 8.1363 0
      vertex 0 0 0
      vertex 8.46927 8.30448 0
    endloop
  endfacet
  facet normal -0 0 -1
    outer loop
      vertex 9.47789 8.03422 0
      vertex 0 0 0
      vertex 8.96472 8.1363 0
    endloop
  endfacet
  facet normal 0 0 -1
    outer loop
      vertex 13.9658 12.5221 0
      vertex 44 24 0
      vertex 14 12 0
    endloop
  endfacet
  facet normal 0 0 -1
    outer loop
      vertex 13.8637 13.0353 0
      vertex 44 24 0
      vertex 13.9658 12.5221 0
    endloop
  endfacet
  facet normal 0 0 -1
    outer loop
      vertex 13.6955 13.5307 0
      vertex 44 24 0
      vertex 13.8637 13.0353 0
    endloop
  endfacet
  facet normal 0 0 -1
    outer loop
      vertex 13.4641 14 0
      vertex 44 24 0
      vertex 13.6955 13.5307 0
    endloop
  endfacet
  facet normal 0 0 -1
    outer loop
      vertex 13.1734 14.435 0
      vertex 44 24 0
      vertex 13.4641 14 0
    endloop
  endfacet
  facet normal 0 0 -1
    outer loop
      vertex 12.8284 14.8284 0
      vertex 44 24 0
      vertex 13.1734 14.435 0
    endloop
  endfacet
  facet normal 0 0 -1
    outer loop
      vertex 12.435 15.1734 0
      vertex 44 24 0
      vertex 12.8284 14.8284 0
    endloop
  endfacet
  facet normal 0 0 -1
    outer loop
      vertex 12 15.4641 0
      vertex 44 24 0
      vertex 12.435 15.1734 0
    endloop
  endfacet
  facet normal 0 0 -1
    outer loop
      vertex 11.5307 15.6955 0
      vertex 44 24 0
      vertex 12 15.4641 0
    endloop
  endfacet
  facet normal 0 0 -1
    outer loop
      vertex 0 24 0
      vertex 11.5307 15.6955 0
      vertex 11.0353 15.8637 0
    endloop
  endfacet
  facet normal 0 0 -1
    outer loop
      vertex 0 24 0
      vertex 11.0353 15.8637 0
      vertex 10.5221 15.9658 0
    endloop
  endfacet
  facet normal 0 0 -1
    outer loop
      vertex 0 24 0
      vertex 10.5221 15.9658 0
      vertex 10 16 0
    endloop
  endfacet
  facet normal 0 0 -1
    outer loop
      vertex 0 24 0
      vertex 10 16 0
      vertex 9.47789 15.9658 0
    endloop
  endfacet
  facet normal 0 0 -1
    outer loop
      vertex 0 24 0
      vertex 9.47789 15.9658 0
      vertex 8.96472 15.8637 0
    endloop
  endfacet
  facet normal 0 0 -1
    outer loop
      vertex 0 24 0
      vertex 6 12 0
      vertex 0 0 0
    endloop
  endfacet
  facet normal 0 0 -1
    outer loop
      vertex 6 12 0
      vertex 0 24 0
      vertex 6.03422 12.5221 0
    endloop
  endfacet
  facet normal 0 0 -1
    outer loop
      vertex 6.03422 12.5221 0
      vertex 0 24 0
      vertex 6.1363 13.0353 0
    endloop
  endfacet
  facet normal 0 0 -1
    outer loop
      vertex 11.5307 15.6955 0
      vertex 0 24 0
      vertex 44 24 0
    endloop
  endfacet
  facet normal 0 0 -1
    outer loop
      vertex 8.46927 15.6955 0
      vertex 0 24 0
      vertex 8.96472 15.8637 0
    endloop
  endfacet
  facet normal 0 0 -1
    outer loop
      vertex 8 15.4641 0
      vertex 0 24 0
      vertex 8.46927 15.6955 0
    endloop
  endfacet
  facet normal 0 0 -1
    outer loop
      vertex 7.56495 15.1734 0
      vertex 0 24 0
      vertex 8 15.4641 0
    endloop
  endfacet
  facet normal 0 0 -1
    outer loop
      vertex 7.17157 14.8284 0
      vertex 0 24 0
      vertex 7.56495 15.1734 0
    endloop
  endfacet
  facet normal 0 0 -1
    outer loop
      vertex 6.82659 14.435 0
      vertex 0 24 0
      vertex 7.17157 14.8284 0
    endloop
  endfacet
  facet normal 0 0 -1
    outer loop
      vertex 6.5359 14 0
      vertex 0 24 0
      vertex 6.82659 14.435 0
    endloop
  endfacet
  facet normal 0 0 -1
    outer loop
      vertex 6.30448 13.5307 0
      vertex 0 24 0
      vertex 6.5359 14 0
    endloop
  endfacet
  facet normal 0 0 -1
    outer loop
      vertex 6.1363 13.0353 0
      vertex 0 24 0
      vertex 6.30448 13.5307 0
    endloop
  endfacet
  facet normal -1 0 0
    outer loop
      vertex 0 0 0
      vertex 0 24 3
      vertex 0 24 0
    endloop
  endfacet
  facet normal -1 -0 0
    outer loop
      vertex 0 24 3
      vertex 0 0 0
      vertex 0 0 3
    endloop
  endfacet
  facet normal 0 1 -0
    outer loop
      vertex 44 24 0
      vertex 0 24 3
      vertex 44 24 3
    endloop
  endfacet
  facet normal 0 1 0
    outer loop
      vertex 0 24 3
      vertex 44 24 0
      vertex 0 24 0
    endloop
  endfacet
  facet normal 0 -1 0
    outer loop
      vertex 0 0 0
      vertex 44 0 3
      vertex 0 0 3
    endloop
  endfacet
  facet normal 0 -1 -0
    outer loop
      vertex 44 0 3
      vertex 0 0 0
      vertex 44 0 0
    endloop
  endfacet
  facet normal -0.980779 -0.195124 0
    outer loop
      vertex 13.9658 12.5221 0
      vertex 13.8637 13.0353 1.4
      vertex 13.8637 13.0353 0
    endloop
  endfacet
  facet normal -0.980779 -0.195124 0
    outer loop
      vertex 13.8637 13.0353 1.4
      vertex 13.9658 12.5221 0
      vertex 13.9658 12.5221 1.4
    endloop
  endfacet
  facet normal -0.997861 -0.0653646 0
    outer loop
      vertex 14 12 0
      vertex 13.9658 12.5221 1.4
      vertex 13.9658 12.5221 0
    endloop
  endfacet
  facet normal -0.997861 -0.0653646 0
    outer loop
      vertex 13.9658 12.5221 1.4
      vertex 14 12 0
      vertex 14 12 1.4
    endloop
  endfacet
  facet normal -0.94691 -0.321498 0
    outer loop
      vertex 13.8637 13.0353 0
      vertex 13.6955 13.5307 1.4
      vertex 13.6955 13.5307 0
    endloop
  endfacet
  facet normal -0.94691 -0.321498 0
    outer loop
      vertex 13.6955 13.5307 1.4
      vertex 13.8637 13.0353 0
      vertex 13.8637 13.0353 1.4
    endloop
  endfacet
  facet normal 0.555569 0.831471 -0
    outer loop
      vertex 8 8.5359 0
      vertex 7.56495 8.82659 1.4
      vertex 8 8.5359 1.4
    endloop
  endfacet
  facet normal 0.555569 0.831471 0
    outer loop
      vertex 7.56495 8.82659 1.4
      vertex 8 8.5359 0
      vertex 7.56495 8.82659 0
    endloop
  endfacet
  facet normal 0.896883 -0.442268 0
    outer loop
      vertex 6.30448 13.5307 1.4
      vertex 6.5359 14 0
      vertex 6.5359 14 1.4
    endloop
  endfacet
  facet normal 0.896883 -0.442268 0
    outer loop
      vertex 6.5359 14 0
      vertex 6.30448 13.5307 1.4
      vertex 6.30448 13.5307 0
    endloop
  endfacet
  facet normal -0.980779 0.195124 0
    outer loop
      vertex 13.8637 10.9647 0
      vertex 13.9658 11.4779 1.4
      vertex 13.9658 11.4779 0
    endloop
  endfacet
  facet normal -0.980779 0.195124 0
    outer loop
      vertex 13.9658 11.4779 1.4
      vertex 13.8637 10.9647 0
      vertex 13.8637 10.9647 1.4
    endloop
  endfacet
  facet normal 0.555582 -0.831462 0
    outer loop
      vertex 7.56495 15.1734 0
      vertex 8 15.4641 1.4
      vertex 7.56495 15.1734 1.4
    endloop
  endfacet
  facet normal 0.555582 -0.831462 0
    outer loop
      vertex 8 15.4641 1.4
      vertex 7.56495 15.1734 0
      vertex 8 15.4641 0
    endloop
  endfacet
  facet normal 0.997859 -0.0654027 0
    outer loop
      vertex 6 12 1.4
      vertex 6.03422 12.5221 0
      vertex 6.03422 12.5221 1.4
    endloop
  endfacet
  facet normal 0.997859 -0.0654027 0
    outer loop
      vertex 6.03422 12.5221 0
      vertex 6 12 1.4
      vertex 6 12 0
    endloop
  endfacet
  facet normal -0.321498 -0.94691 0
    outer loop
      vertex 11.0353 15.8637 0
      vertex 11.5307 15.6955 1.4
      vertex 11.0353 15.8637 1.4
    endloop
  endfacet
  facet normal -0.321498 -0.94691 -0
    outer loop
      vertex 11.5307 15.6955 1.4
      vertex 11.0353 15.8637 0
      vertex 11.5307 15.6955 0
    endloop
  endfacet
  facet normal -0.94691 0.321498 0
    outer loop
      vertex 13.6955 10.4693 0
      vertex 13.8637 10.9647 1.4
      vertex 13.8637 10.9647 0
    endloop
  endfacet
  facet normal -0.94691 0.321498 0
    outer loop
      vertex 13.8637 10.9647 1.4
      vertex 13.6955 10.4693 0
      vertex 13.6955 10.4693 1.4
    endloop
  endfacet
  facet normal -0.442268 0.896883 0
    outer loop
      vertex 12 8.5359 0
      vertex 11.5307 8.30448 1.4
      vertex 12 8.5359 1.4
    endloop
  endfacet
  facet normal -0.442268 0.896883 0
    outer loop
      vertex 11.5307 8.30448 1.4
      vertex 12 8.5359 0
      vertex 11.5307 8.30448 0
    endloop
  endfacet
  facet normal 0.946922 0.321464 0
    outer loop
      vertex 6.30448 10.4693 1.4
      vertex 6.1363 10.9647 0
      vertex 6.1363 10.9647 1.4
    endloop
  endfacet
  facet normal 0.946922 0.321464 0
    outer loop
      vertex 6.1363 10.9647 0
      vertex 6.30448 10.4693 1.4
      vertex 6.30448 10.4693 0
    endloop
  endfacet
  facet normal -0.896898 -0.442238 0
    outer loop
      vertex 13.6955 13.5307 0
      vertex 13.4641 14 1.4
      vertex 13.4641 14 0
    endloop
  endfacet
  facet normal -0.896898 -0.442238 0
    outer loop
      vertex 13.4641 14 1.4
      vertex 13.6955 13.5307 0
      vertex 13.6955 13.5307 1.4
    endloop
  endfacet
  facet normal -0.195124 -0.980779 0
    outer loop
      vertex 10.5221 15.9658 0
      vertex 11.0353 15.8637 1.4
      vertex 10.5221 15.9658 1.4
    endloop
  endfacet
  facet normal -0.195124 -0.980779 -0
    outer loop
      vertex 11.0353 15.8637 1.4
      vertex 10.5221 15.9658 0
      vertex 11.0353 15.8637 0
    endloop
  endfacet
  facet normal -0.555626 -0.831432 0
    outer loop
      vertex 12 15.4641 0
      vertex 12.435 15.1734 1.4
      vertex 12 15.4641 1.4
    endloop
  endfacet
  facet normal -0.555626 -0.831432 -0
    outer loop
      vertex 12.435 15.1734 1.4
      vertex 12 15.4641 0
      vertex 12.435 15.1734 0
    endloop
  endfacet
  facet normal -0.659343 -0.751842 0
    outer loop
      vertex 12.435 15.1734 0
      vertex 12.8284 14.8284 1.4
      vertex 12.435 15.1734 1.4
    endloop
  endfacet
  facet normal -0.659343 -0.751842 -0
    outer loop
      vertex 12.8284 14.8284 1.4
      vertex 12.435 15.1734 0
      vertex 12.8284 14.8284 0
    endloop
  endfacet
  facet normal -0.831462 0.555582 0
    outer loop
      vertex 13.1734 9.56495 0
      vertex 13.4641 10 1.4
      vertex 13.4641 10 0
    endloop
  endfacet
  facet normal -0.831462 0.555582 0
    outer loop
      vertex 13.4641 10 1.4
      vertex 13.1734 9.56495 0
      vertex 13.1734 9.56495 1.4
    endloop
  endfacet
  facet normal 0.896883 0.442268 0
    outer loop
      vertex 6.5359 10 1.4
      vertex 6.30448 10.4693 0
      vertex 6.30448 10.4693 1.4
    endloop
  endfacet
  facet normal 0.896883 0.442268 0
    outer loop
      vertex 6.30448 10.4693 0
      vertex 6.5359 10 1.4
      vertex 6.5359 10 0
    endloop
  endfacet
  facet normal 0.0653634 -0.997862 0
    outer loop
      vertex 9.47789 15.9658 0
      vertex 10 16 1.4
      vertex 9.47789 15.9658 1.4
    endloop
  endfacet
  facet normal 0.0653634 -0.997862 0
    outer loop
      vertex 10 16 1.4
      vertex 9.47789 15.9658 0
      vertex 10 16 0
    endloop
  endfacet
  facet normal 0.751861 -0.659321 0
    outer loop
      vertex 6.82659 14.435 1.4
      vertex 7.17157 14.8284 0
      vertex 7.17157 14.8284 1.4
    endloop
  endfacet
  facet normal 0.751861 -0.659321 0
    outer loop
      vertex 7.17157 14.8284 0
      vertex 6.82659 14.435 1.4
      vertex 6.82659 14.435 0
    endloop
  endfacet
  facet normal 0.321435 0.946932 -0
    outer loop
      vertex 8.96472 8.1363 0
      vertex 8.46927 8.30448 1.4
      vertex 8.96472 8.1363 1.4
    endloop
  endfacet
  facet normal 0.321435 0.946932 0
    outer loop
      vertex 8.46927 8.30448 1.4
      vertex 8.96472 8.1363 0
      vertex 8.46927 8.30448 0
    endloop
  endfacet
  facet normal -0.751842 -0.659343 0
    outer loop
      vertex 13.1734 14.435 0
      vertex 12.8284 14.8284 1.4
      vertex 12.8284 14.8284 0
    endloop
  endfacet
  facet normal -0.751842 -0.659343 0
    outer loop
      vertex 12.8284 14.8284 1.4
      vertex 13.1734 14.435 0
      vertex 13.1734 14.435 1.4
    endloop
  endfacet
  facet normal 0.659362 -0.751826 0
    outer loop
      vertex 7.17157 14.8284 0
      vertex 7.56495 15.1734 1.4
      vertex 7.17157 14.8284 1.4
    endloop
  endfacet
  facet normal 0.659362 -0.751826 0
    outer loop
      vertex 7.56495 15.1734 1.4
      vertex 7.17157 14.8284 0
      vertex 7.56495 15.1734 0
    endloop
  endfacet
  facet normal 0.44226 -0.896887 0
    outer loop
      vertex 8 15.4641 0
      vertex 8.46927 15.6955 1.4
      vertex 8 15.4641 1.4
    endloop
  endfacet
  facet normal 0.44226 -0.896887 0
    outer loop
      vertex 8.46927 15.6955 1.4
      vertex 8 15.4641 0
      vertex 8.46927 15.6955 0
    endloop
  endfacet
  facet normal -0.195087 0.980786 0
    outer loop
      vertex 11.0353 8.1363 0
      vertex 10.5221 8.03422 1.4
      vertex 11.0353 8.1363 1.4
    endloop
  endfacet
  facet normal -0.195087 0.980786 0
    outer loop
      vertex 10.5221 8.03422 1.4
      vertex 11.0353 8.1363 0
      vertex 10.5221 8.03422 0
    endloop
  endfacet
  facet normal 0.831441 -0.555613 0
    outer loop
      vertex 6.5359 14 1.4
      vertex 6.82659 14.435 0
      vertex 6.82659 14.435 1.4
    endloop
  endfacet
  facet normal 0.831441 -0.555613 0
    outer loop
      vertex 6.82659 14.435 0
      vertex 6.5359 14 1.4
      vertex 6.5359 14 0
    endloop
  endfacet
  facet normal -0.442238 -0.896898 0
    outer loop
      vertex 11.5307 15.6955 0
      vertex 12 15.4641 1.4
      vertex 11.5307 15.6955 1.4
    endloop
  endfacet
  facet normal -0.442238 -0.896898 -0
    outer loop
      vertex 12 15.4641 1.4
      vertex 11.5307 15.6955 0
      vertex 12 15.4641 0
    endloop
  endfacet
  facet normal -0.997861 0.0653646 0
    outer loop
      vertex 13.9658 11.4779 0
      vertex 14 12 1.4
      vertex 14 12 0
    endloop
  endfacet
  facet normal -0.997861 0.0653646 0
    outer loop
      vertex 14 12 1.4
      vertex 13.9658 11.4779 0
      vertex 13.9658 11.4779 1.4
    endloop
  endfacet
  facet normal -0.831432 -0.555626 0
    outer loop
      vertex 13.4641 14 0
      vertex 13.1734 14.435 1.4
      vertex 13.1734 14.435 0
    endloop
  endfacet
  facet normal -0.831432 -0.555626 0
    outer loop
      vertex 13.1734 14.435 1.4
      vertex 13.4641 14 0
      vertex 13.4641 14 1.4
    endloop
  endfacet
  facet normal 0.321469 -0.94692 0
    outer loop
      vertex 8.46927 15.6955 0
      vertex 8.96472 15.8637 1.4
      vertex 8.46927 15.6955 1.4
    endloop
  endfacet
  facet normal 0.321469 -0.94692 0
    outer loop
      vertex 8.96472 15.8637 1.4
      vertex 8.46927 15.6955 0
      vertex 8.96472 15.8637 0
    endloop
  endfacet
  facet normal 0.751845 0.65934 0
    outer loop
      vertex 7.17157 9.17157 1.4
      vertex 6.82659 9.56495 0
      vertex 6.82659 9.56495 1.4
    endloop
  endfacet
  facet normal 0.751845 0.65934 0
    outer loop
      vertex 6.82659 9.56495 0
      vertex 7.17157 9.17157 1.4
      vertex 7.17157 9.17157 0
    endloop
  endfacet
  facet normal -0.659321 0.751861 0
    outer loop
      vertex 12.8284 9.17157 0
      vertex 12.435 8.82659 1.4
      vertex 12.8284 9.17157 1.4
    endloop
  endfacet
  facet normal -0.659321 0.751861 0
    outer loop
      vertex 12.435 8.82659 1.4
      vertex 12.8284 9.17157 0
      vertex 12.435 8.82659 0
    endloop
  endfacet
  facet normal 0.0654014 0.997859 -0
    outer loop
      vertex 10 8 0
      vertex 9.47789 8.03422 1.4
      vertex 10 8 1.4
    endloop
  endfacet
  facet normal 0.0654014 0.997859 0
    outer loop
      vertex 9.47789 8.03422 1.4
      vertex 10 8 0
      vertex 9.47789 8.03422 0
    endloop
  endfacet
  facet normal -0.321464 0.946922 0
    outer loop
      vertex 11.5307 8.30448 0
      vertex 11.0353 8.1363 1.4
      vertex 11.5307 8.30448 1.4
    endloop
  endfacet
  facet normal -0.321464 0.946922 0
    outer loop
      vertex 11.0353 8.1363 1.4
      vertex 11.5307 8.30448 0
      vertex 11.0353 8.1363 0
    endloop
  endfacet
  facet normal -0.555613 0.831441 0
    outer loop
      vertex 12.435 8.82659 0
      vertex 12 8.5359 1.4
      vertex 12.435 8.82659 1.4
    endloop
  endfacet
  facet normal -0.555613 0.831441 0
    outer loop
      vertex 12 8.5359 1.4
      vertex 12.435 8.82659 0
      vertex 12 8.5359 0
    endloop
  endfacet
  facet normal -0.0653646 -0.997861 0
    outer loop
      vertex 10 16 0
      vertex 10.5221 15.9658 1.4
      vertex 10 16 1.4
    endloop
  endfacet
  facet normal -0.0653646 -0.997861 -0
    outer loop
      vertex 10.5221 15.9658 1.4
      vertex 10 16 0
      vertex 10.5221 15.9658 0
    endloop
  endfacet
  facet normal -0.751826 0.659362 0
    outer loop
      vertex 12.8284 9.17157 0
      vertex 13.1734 9.56495 1.4
      vertex 13.1734 9.56495 0
    endloop
  endfacet
  facet normal -0.751826 0.659362 0
    outer loop
      vertex 13.1734 9.56495 1.4
      vertex 12.8284 9.17157 0
      vertex 12.8284 9.17157 1.4
    endloop
  endfacet
  facet normal 0.831471 0.555569 0
    outer loop
      vertex 6.82659 9.56495 1.4
      vertex 6.5359 10 0
      vertex 6.5359 10 1.4
    endloop
  endfacet
  facet normal 0.831471 0.555569 0
    outer loop
      vertex 6.5359 10 0
      vertex 6.82659 9.56495 1.4
      vertex 6.82659 9.56495 0
    endloop
  endfacet
  facet normal 0.442291 0.896871 -0
    outer loop
      vertex 8.46927 8.30448 0
      vertex 8 8.5359 1.4
      vertex 8.46927 8.30448 1.4
    endloop
  endfacet
  facet normal 0.442291 0.896871 0
    outer loop
      vertex 8 8.5359 1.4
      vertex 8.46927 8.30448 0
      vertex 8 8.5359 0
    endloop
  endfacet
  facet normal 0.65934 0.751845 -0
    outer loop
      vertex 7.56495 8.82659 0
      vertex 7.17157 9.17157 1.4
      vertex 7.56495 8.82659 1.4
    endloop
  endfacet
  facet normal 0.65934 0.751845 0
    outer loop
      vertex 7.17157 9.17157 1.4
      vertex 7.56495 8.82659 0
      vertex 7.17157 9.17157 0
    endloop
  endfacet
  facet normal -0.896898 0.442238 0
    outer loop
      vertex 13.4641 10 0
      vertex 13.6955 10.4693 1.4
      vertex 13.6955 10.4693 0
    endloop
  endfacet
  facet normal -0.896898 0.442238 0
    outer loop
      vertex 13.6955 10.4693 1.4
      vertex 13.4641 10 0
      vertex 13.4641 10 1.4
    endloop
  endfacet
  facet normal 0.980786 -0.195087 0
    outer loop
      vertex 6.03422 12.5221 1.4
      vertex 6.1363 13.0353 0
      vertex 6.1363 13.0353 1.4
    endloop
  endfacet
  facet normal 0.980786 -0.195087 0
    outer loop
      vertex 6.1363 13.0353 0
      vertex 6.03422 12.5221 1.4
      vertex 6.03422 12.5221 0
    endloop
  endfacet
  facet normal 0.195098 0.980784 -0
    outer loop
      vertex 9.47789 8.03422 0
      vertex 8.96472 8.1363 1.4
      vertex 9.47789 8.03422 1.4
    endloop
  endfacet
  facet normal 0.195098 0.980784 0
    outer loop
      vertex 8.96472 8.1363 1.4
      vertex 9.47789 8.03422 0
      vertex 8.96472 8.1363 0
    endloop
  endfacet
  facet normal -0.0654027 0.997859 0
    outer loop
      vertex 10.5221 8.03422 0
      vertex 10 8 1.4
      vertex 10.5221 8.03422 1.4
    endloop
  endfacet
  facet normal -0.0654027 0.997859 0
    outer loop
      vertex 10 8 1.4
      vertex 10.5221 8.03422 0
      vertex 10 8 0
    endloop
  endfacet
  facet normal 0.997859 0.0654027 0
    outer loop
      vertex 6.03422 11.4779 1.4
      vertex 6 12 0
      vertex 6 12 1.4
    endloop
  endfacet
  facet normal 0.997859 0.0654027 0
    outer loop
      vertex 6 12 0
      vertex 6.03422 11.4779 1.4
      vertex 6.03422 11.4779 0
    endloop
  endfacet
  facet normal 0.195135 -0.980776 0
    outer loop
      vertex 8.96472 15.8637 0
      vertex 9.47789 15.9658 1.4
      vertex 8.96472 15.8637 1.4
    endloop
  endfacet
  facet normal 0.195135 -0.980776 0
    outer loop
      vertex 9.47789 15.9658 1.4
      vertex 8.96472 15.8637 0
      vertex 9.47789 15.9658 0
    endloop
  endfacet
  facet normal 0.980786 0.195087 0
    outer loop
      vertex 6.1363 10.9647 1.4
      vertex 6.03422 11.4779 0
      vertex 6.03422 11.4779 1.4
    endloop
  endfacet
  facet normal 0.980786 0.195087 0
    outer loop
      vertex 6.03422 11.4779 0
      vertex 6.1363 10.9647 1.4
      vertex 6.1363 10.9647 0
    endloop
  endfacet
  facet normal 0.946922 -0.321464 0
    outer loop
      vertex 6.1363 13.0353 1.4
      vertex 6.30448 13.5307 0
      vertex 6.30448 13.5307 1.4
    endloop
  endfacet
  facet normal 0.946922 -0.321464 0
    outer loop
      vertex 6.30448 13.5307 0
      vertex 6.1363 13.0353 1.4
      vertex 6.1363 13.0353 0
    endloop
  endfacet
  facet normal 0 -0.93704 -0.349223
    outer loop
      vertex 1 18.6 1.4
      vertex 44 18.0037 3
      vertex 1 18.0037 3
    endloop
  endfacet
  facet normal 0 -0.93704 -0.349223
    outer loop
      vertex 44 18.0037 3
      vertex 1 18.6 1.4
      vertex 44 18.6 1.4
    endloop
  endfacet
  facet normal 0 0.937045 -0.349208
    outer loop
      vertex 44 5.40001 1.4
      vertex 1 5.99628 3
      vertex 44 5.99628 3
    endloop
  endfacet
  facet normal 0 0.937045 -0.349208
    outer loop
      vertex 1 5.99628 3
      vertex 44 5.40001 1.4
      vertex 1 5.40001 1.4
    endloop
  endfacet
  facet normal 0 0 1
    outer loop
      vertex 44 18.6 1.4
      vertex 18.3 17 1.4
      vertex 44 5.40001 1.4
    endloop
  endfacet
  facet normal -0 0 1
    outer loop
      vertex 1 18.6 1.4
      vertex 18.3 17 1.4
      vertex 44 18.6 1.4
    endloop
  endfacet
  facet normal 0 0 1
    outer loop
      vertex 17.5 17 1.4
      vertex 14 12 1.4
      vertex 17.5 7 1.4
    endloop
  endfacet
  facet normal 0 0 1
    outer loop
      vertex 17.5 17 1.4
      vertex 13.9658 12.5221 1.4
      vertex 14 12 1.4
    endloop
  endfacet
  facet normal 0 0 1
    outer loop
      vertex 17.5 17 1.4
      vertex 13.8637 13.0353 1.4
      vertex 13.9658 12.5221 1.4
    endloop
  endfacet
  facet normal 0 0 1
    outer loop
      vertex 17.5 17 1.4
      vertex 13.6955 13.5307 1.4
      vertex 13.8637 13.0353 1.4
    endloop
  endfacet
  facet normal 0 0 1
    outer loop
      vertex 17.5 17 1.4
      vertex 13.4641 14 1.4
      vertex 13.6955 13.5307 1.4
    endloop
  endfacet
  facet normal 0 0 1
    outer loop
      vertex 17.5 17 1.4
      vertex 13.1734 14.435 1.4
      vertex 13.4641 14 1.4
    endloop
  endfacet
  facet normal 0 0 1
    outer loop
      vertex 17.5 17 1.4
      vertex 12.8284 14.8284 1.4
      vertex 13.1734 14.435 1.4
    endloop
  endfacet
  facet normal 0 0 1
    outer loop
      vertex 17.5 17 1.4
      vertex 12.435 15.1734 1.4
      vertex 12.8284 14.8284 1.4
    endloop
  endfacet
  facet normal 0 0 1
    outer loop
      vertex 17.5 17 1.4
      vertex 12 15.4641 1.4
      vertex 12.435 15.1734 1.4
    endloop
  endfacet
  facet normal 0 0 1
    outer loop
      vertex 17.5 17 1.4
      vertex 11.5307 15.6955 1.4
      vertex 12 15.4641 1.4
    endloop
  endfacet
  facet normal 0 0 1
    outer loop
      vertex 17.5 17 1.4
      vertex 11.0353 15.8637 1.4
      vertex 11.5307 15.6955 1.4
    endloop
  endfacet
  facet normal 0 0 1
    outer loop
      vertex 17.5 17 1.4
      vertex 10.5221 15.9658 1.4
      vertex 11.0353 15.8637 1.4
    endloop
  endfacet
  facet normal 0 0 1
    outer loop
      vertex 17.5 17 1.4
      vertex 10 16 1.4
      vertex 10.5221 15.9658 1.4
    endloop
  endfacet
  facet normal 0 0 1
    outer loop
      vertex 1 18.6 1.4
      vertex 10 16 1.4
      vertex 17.5 17 1.4
    endloop
  endfacet
  facet normal 0 0 1
    outer loop
      vertex 6.03422 12.5221 1.4
      vertex 4.3 17 1.4
      vertex 6 12 1.4
    endloop
  endfacet
  facet normal 0 0 1
    outer loop
      vertex 6.1363 13.0353 1.4
      vertex 4.3 17 1.4
      vertex 6.03422 12.5221 1.4
    endloop
  endfacet
  facet normal 0 0 1
    outer loop
      vertex 6.30448 13.5307 1.4
      vertex 4.3 17 1.4
      vertex 6.1363 13.0353 1.4
    endloop
  endfacet
  facet normal 0 0 1
    outer loop
      vertex 6.5359 14 1.4
      vertex 4.3 17 1.4
      vertex 6.30448 13.5307 1.4
    endloop
  endfacet
  facet normal 0 0 1
    outer loop
      vertex 6.82659 14.435 1.4
      vertex 4.3 17 1.4
      vertex 6.5359 14 1.4
    endloop
  endfacet
  facet normal 0 0 1
    outer loop
      vertex 7.17157 14.8284 1.4
      vertex 4.3 17 1.4
      vertex 6.82659 14.435 1.4
    endloop
  endfacet
  facet normal 0 0 1
    outer loop
      vertex 7.56495 15.1734 1.4
      vertex 4.3 17 1.4
      vertex 7.17157 14.8284 1.4
    endloop
  endfacet
  facet normal 0 0 1
    outer loop
      vertex 8 15.4641 1.4
      vertex 4.3 17 1.4
      vertex 7.56495 15.1734 1.4
    endloop
  endfacet
  facet normal 0 0 1
    outer loop
      vertex 8.46927 15.6955 1.4
      vertex 4.3 17 1.4
      vertex 8 15.4641 1.4
    endloop
  endfacet
  facet normal 0 0 1
    outer loop
      vertex 8.96472 15.8637 1.4
      vertex 4.3 17 1.4
      vertex 8.46927 15.6955 1.4
    endloop
  endfacet
  facet normal 0 0 1
    outer loop
      vertex 9.47789 15.9658 1.4
      vertex 4.3 17 1.4
      vertex 8.96472 15.8637 1.4
    endloop
  endfacet
  facet normal -0 -0 1
    outer loop
      vertex 4.3 17 1.4
      vertex 10 16 1.4
      vertex 1 18.6 1.4
    endloop
  endfacet
  facet normal 0 0 1
    outer loop
      vertex 18.3 17 1.4
      vertex 1 18.6 1.4
      vertex 17.5 17 1.4
    endloop
  endfacet
  facet normal 0 0 1
    outer loop
      vertex 10 16 1.4
      vertex 4.3 17 1.4
      vertex 9.47789 15.9658 1.4
    endloop
  endfacet
  facet normal 0 0 1
    outer loop
      vertex 3.5 17 1.4
      vertex 1 18.6 1.4
      vertex 3.5 7 1.4
    endloop
  endfacet
  facet normal 0 0 1
    outer loop
      vertex 4.3 17 1.4
      vertex 1 18.6 1.4
      vertex 3.5 17 1.4
    endloop
  endfacet
  facet normal -0 0 1
    outer loop
      vertex 18.3 7 1.4
      vertex 44 5.40001 1.4
      vertex 18.3 17 1.4
    endloop
  endfacet
  facet normal 0 0 1
    outer loop
      vertex 1 5.40001 1.4
      vertex 18.3 7 1.4
      vertex 17.5 7 1.4
    endloop
  endfacet
  facet normal -0 0 1
    outer loop
      vertex 13.9658 11.4779 1.4
      vertex 17.5 7 1.4
      vertex 14 12 1.4
    endloop
  endfacet
  facet normal -0 0 1
    outer loop
      vertex 13.8637 10.9647 1.4
      vertex 17.5 7 1.4
      vertex 13.9658 11.4779 1.4
    endloop
  endfacet
  facet normal -0 0 1
    outer loop
      vertex 13.6955 10.4693 1.4
      vertex 17.5 7 1.4
      vertex 13.8637 10.9647 1.4
    endloop
  endfacet
  facet normal -0 0 1
    outer loop
      vertex 13.4641 10 1.4
      vertex 17.5 7 1.4
      vertex 13.6955 10.4693 1.4
    endloop
  endfacet
  facet normal -0 0 1
    outer loop
      vertex 13.1734 9.56495 1.4
      vertex 17.5 7 1.4
      vertex 13.4641 10 1.4
    endloop
  endfacet
  facet normal -0 0 1
    outer loop
      vertex 12.8284 9.17157 1.4
      vertex 17.5 7 1.4
      vertex 13.1734 9.56495 1.4
    endloop
  endfacet
  facet normal -0 0 1
    outer loop
      vertex 12.435 8.82659 1.4
      vertex 17.5 7 1.4
      vertex 12.8284 9.17157 1.4
    endloop
  endfacet
  facet normal -0 0 1
    outer loop
      vertex 12 8.5359 1.4
      vertex 17.5 7 1.4
      vertex 12.435 8.82659 1.4
    endloop
  endfacet
  facet normal -0 0 1
    outer loop
      vertex 11.5307 8.30448 1.4
      vertex 17.5 7 1.4
      vertex 12 8.5359 1.4
    endloop
  endfacet
  facet normal -0 0 1
    outer loop
      vertex 11.0353 8.1363 1.4
      vertex 17.5 7 1.4
      vertex 11.5307 8.30448 1.4
    endloop
  endfacet
  facet normal -0 0 1
    outer loop
      vertex 10.5221 8.03422 1.4
      vertex 17.5 7 1.4
      vertex 11.0353 8.1363 1.4
    endloop
  endfacet
  facet normal -0 0 1
    outer loop
      vertex 10 8 1.4
      vertex 17.5 7 1.4
      vertex 10.5221 8.03422 1.4
    endloop
  endfacet
  facet normal 0 0 1
    outer loop
      vertex 4.3 7 1.4
      vertex 10 8 1.4
      vertex 9.47789 8.03422 1.4
    endloop
  endfacet
  facet normal 0 0 1
    outer loop
      vertex 4.3 7 1.4
      vertex 6 12 1.4
      vertex 4.3 17 1.4
    endloop
  endfacet
  facet normal 0 0 1
    outer loop
      vertex 6 12 1.4
      vertex 4.3 7 1.4
      vertex 6.03422 11.4779 1.4
    endloop
  endfacet
  facet normal 0 0 1
    outer loop
      vertex 6.03422 11.4779 1.4
      vertex 4.3 7 1.4
      vertex 6.1363 10.9647 1.4
    endloop
  endfacet
  facet normal 0 0 1
    outer loop
      vertex 4.3 7 1.4
      vertex 6.30448 10.4693 1.4
      vertex 6.1363 10.9647 1.4
    endloop
  endfacet
  facet normal 0 0 1
    outer loop
      vertex 4.3 7 1.4
      vertex 6.5359 10 1.4
      vertex 6.30448 10.4693 1.4
    endloop
  endfacet
  facet normal 0 0 1
    outer loop
      vertex 4.3 7 1.4
      vertex 6.82659 9.56495 1.4
      vertex 6.5359 10 1.4
    endloop
  endfacet
  facet normal 0 0 1
    outer loop
      vertex 4.3 7 1.4
      vertex 7.17157 9.17157 1.4
      vertex 6.82659 9.56495 1.4
    endloop
  endfacet
  facet normal 0 0 1
    outer loop
      vertex 4.3 7 1.4
      vertex 7.56495 8.82659 1.4
      vertex 7.17157 9.17157 1.4
    endloop
  endfacet
  facet normal 0 0 1
    outer loop
      vertex 4.3 7 1.4
      vertex 8 8.5359 1.4
      vertex 7.56495 8.82659 1.4
    endloop
  endfacet
  facet normal 0 0 1
    outer loop
      vertex 4.3 7 1.4
      vertex 8.46927 8.30448 1.4
      vertex 8 8.5359 1.4
    endloop
  endfacet
  facet normal 0 0 1
    outer loop
      vertex 4.3 7 1.4
      vertex 8.96472 8.1363 1.4
      vertex 8.46927 8.30448 1.4
    endloop
  endfacet
  facet normal 0 0 1
    outer loop
      vertex 4.3 7 1.4
      vertex 9.47789 8.03422 1.4
      vertex 8.96472 8.1363 1.4
    endloop
  endfacet
  facet normal 0 0 1
    outer loop
      vertex 10 8 1.4
      vertex 4.3 7 1.4
      vertex 1 5.40001 1.4
    endloop
  endfacet
  facet normal 0 0 1
    outer loop
      vertex 10 8 1.4
      vertex 1 5.40001 1.4
      vertex 17.5 7 1.4
    endloop
  endfacet
  facet normal 0 0 1
    outer loop
      vertex 1 5.40001 1.4
      vertex 4.3 7 1.4
      vertex 3.5 7 1.4
    endloop
  endfacet
  facet normal 0 0 1
    outer loop
      vertex 18.3 7 1.4
      vertex 1 5.40001 1.4
      vertex 44 5.40001 1.4
    endloop
  endfacet
  facet normal 0 0 1
    outer loop
      vertex 1 5.40001 1.4
      vertex 3.5 7 1.4
      vertex 1 18.6 1.4
    endloop
  endfacet
  facet normal 1 -0 0
    outer loop
      vertex 1 5.99628 3
      vertex 1 18.6 1.4
      vertex 1 18.0037 3
    endloop
  endfacet
  facet normal 1 0 0
    outer loop
      vertex 1 18.6 1.4
      vertex 1 5.99628 3
      vertex 1 5.40001 1.4
    endloop
  endfacet
  facet normal 1 -0 0
    outer loop
      vertex 4.3 7 1.7
      vertex 4.3 17 1.4
      vertex 4.3 17 1.7
    endloop
  endfacet
  facet normal 1 0 0
    outer loop
      vertex 4.3 17 1.4
      vertex 4.3 7 1.7
      vertex 4.3 7 1.4
    endloop
  endfacet
  facet normal -0 0 1
    outer loop
      vertex 3.5 17 1.7
      vertex 4.3 7 1.7
      vertex 4.3 17 1.7
    endloop
  endfacet
  facet normal 0 0 1
    outer loop
      vertex 4.3 7 1.7
      vertex 3.5 17 1.7
      vertex 3.5 7 1.7
    endloop
  endfacet
  facet normal -1 0 0
    outer loop
      vertex 3.5 7 1.4
      vertex 3.5 17 1.7
      vertex 3.5 17 1.4
    endloop
  endfacet
  facet normal -1 -0 0
    outer loop
      vertex 3.5 17 1.7
      vertex 3.5 7 1.4
      vertex 3.5 7 1.7
    endloop
  endfacet
  facet normal 0 1 -0
    outer loop
      vertex 4.3 17 1.4
      vertex 3.5 17 1.7
      vertex 4.3 17 1.7
    endloop
  endfacet
  facet normal 0 1 0
    outer loop
      vertex 3.5 17 1.7
      vertex 4.3 17 1.4
      vertex 3.5 17 1.4
    endloop
  endfacet
  facet normal 0 -1 0
    outer loop
      vertex 3.5 7 1.4
      vertex 4.3 7 1.7
      vertex 3.5 7 1.7
    endloop
  endfacet
  facet normal 0 -1 -0
    outer loop
      vertex 4.3 7 1.7
      vertex 3.5 7 1.4
      vertex 4.3 7 1.4
    endloop
  endfacet
  facet normal 1 -0 0
    outer loop
      vertex 18.3 7 1.7
      vertex 18.3 17 1.4
      vertex 18.3 17 1.7
    endloop
  endfacet
  facet normal 1 0 0
    outer loop
      vertex 18.3 17 1.4
      vertex 18.3 7 1.7
      vertex 18.3 7 1.4
    endloop
  endfacet
  facet normal -0 0 1
    outer loop
      vertex 17.5 17 1.7
      vertex 18.3 7 1.7
      vertex 18.3 17 1.7
    endloop
  endfacet
  facet normal 0 0 1
    outer loop
      vertex 18.3 7 1.7
      vertex 17.5 17 1.7
      vertex 17.5 7 1.7
    endloop
  endfacet
  facet normal -1 0 0
    outer loop
      vertex 17.5 7 1.4
      vertex 17.5 17 1.7
      vertex 17.5 17 1.4
    endloop
  endfacet
  facet normal -1 -0 0
    outer loop
      vertex 17.5 17 1.7
      vertex 17.5 7 1.4
      vertex 17.5 7 1.7
    endloop
  endfacet
  facet normal 0 1 -0
    outer loop
      vertex 18.3 17 1.4
      vertex 17.5 17 1.7
      vertex 18.3 17 1.7
    endloop
  endfacet
  facet normal 0 1 0
    outer loop
      vertex 17.5 17 1.7
      vertex 18.3 17 1.4
      vertex 17.5 17 1.4
    endloop
  endfacet
  facet normal 0 -1 0
    outer loop
      vertex 17.5 7 1.4
      vertex 18.3 7 1.7
      vertex 17.5 7 1.7
    endloop
  endfacet
  facet normal 0 -1 -0
    outer loop
      vertex 18.3 7 1.7
      vertex 17.5 7 1.4
      vertex 18.3 7 1.4
    endloop
  endfacet
  facet normal 0 0.91384 0.406074
    outer loop
      vertex 13.6 44.35 0
      vertex 2.4 44.1767 0.389999
      vertex 13.6 44.1767 0.389999
    endloop
  endfacet
  facet normal 0 0.91384 0.406074
    outer loop
      vertex 2.4 44.1767 0.389999
      vertex 13.6 44.35 0
      vertex 2.4 44.35 0
    endloop
  endfacet
  facet normal -0 0.913798 0.406168
    outer loop
      vertex 13.6 44.1767 0.389999
      vertex 16 43.75 1.34999
      vertex 14.6 44.1767 0.389999
    endloop
  endfacet
  facet normal 2.23054e-05 0.91381 0.406141
    outer loop
      vertex 16 44.35 0
      vertex 14.6 44.1767 0.389999
      vertex 16 43.75 1.34999
    endloop
  endfacet
  facet normal 0 0.91384 0.406074
    outer loop
      vertex 14.6 44.1767 0.389999
      vertex 16 44.35 0
      vertex 14.6 44.35 0
    endloop
  endfacet
  facet normal 0 0.913798 0.406168
    outer loop
      vertex 16 43.75 1.34999
      vertex 13.6 44.1767 0.389999
      vertex 0 43.75 1.34999
    endloop
  endfacet
  facet normal -0 0.913798 0.406168
    outer loop
      vertex 2.4 44.1767 0.389999
      vertex 0 43.75 1.34999
      vertex 13.6 44.1767 0.389999
    endloop
  endfacet
  facet normal -0 0.913798 0.406168
    outer loop
      vertex 1.4 44.1767 0.389999
      vertex 0 43.75 1.34999
      vertex 2.4 44.1767 0.389999
    endloop
  endfacet
  facet normal -0 0.91384 0.406074
    outer loop
      vertex 0 44.35 0
      vertex 1.4 44.1767 0.389999
      vertex 1.4 44.35 0
    endloop
  endfacet
  facet normal -2.23054e-05 0.91381 0.406141
    outer loop
      vertex 1.4 44.1767 0.389999
      vertex 0 44.35 0
      vertex 0 43.75 1.34999
    endloop
  endfacet
  facet normal 0 -0.91384 0.406074
    outer loop
      vertex 2.4 31.65 0
      vertex 13.6 31.8233 0.389999
      vertex 2.4 31.8233 0.389999
    endloop
  endfacet
  facet normal 0 -0.91384 0.406074
    outer loop
      vertex 13.6 31.8233 0.389999
      vertex 2.4 31.65 0
      vertex 13.6 31.65 0
    endloop
  endfacet
  facet normal 0 -0.913798 0.406168
    outer loop
      vertex 2.4 31.8233 0.389999
      vertex 0 32.25 1.34999
      vertex 1.4 31.8233 0.389999
    endloop
  endfacet
  facet normal -2.23054e-05 -0.91381 0.406141
    outer loop
      vertex 0 31.65 0
      vertex 1.4 31.8233 0.389999
      vertex 0 32.25 1.34999
    endloop
  endfacet
  facet normal 0 -0.91384 0.406074
    outer loop
      vertex 1.4 31.8233 0.389999
      vertex 0 31.65 0
      vertex 1.4 31.65 0
    endloop
  endfacet
  facet normal 0 -0.913798 0.406168
    outer loop
      vertex 0 32.25 1.34999
      vertex 2.4 31.8233 0.389999
      vertex 16 32.25 1.34999
    endloop
  endfacet
  facet normal 0 -0.913798 0.406168
    outer loop
      vertex 13.6 31.8233 0.389999
      vertex 16 32.25 1.34999
      vertex 2.4 31.8233 0.389999
    endloop
  endfacet
  facet normal 0 -0.913798 0.406168
    outer loop
      vertex 14.6 31.8233 0.389999
      vertex 16 32.25 1.34999
      vertex 13.6 31.8233 0.389999
    endloop
  endfacet
  facet normal 0 -0.91384 0.406074
    outer loop
      vertex 16 31.65 0
      vertex 14.6 31.8233 0.389999
      vertex 14.6 31.65 0
    endloop
  endfacet
  facet normal 2.23054e-05 -0.91381 0.406141
    outer loop
      vertex 14.6 31.8233 0.389999
      vertex 16 31.65 0
      vertex 16 32.25 1.34999
    endloop
  endfacet
  facet normal 0 0 -1
    outer loop
      vertex 14.6 31.65 0
      vertex 16 44.35 0
      vertex 16 31.65 0
    endloop
  endfacet
  facet normal -0 0 -1
    outer loop
      vertex 16 44.35 0
      vertex 14.6 31.65 0
      vertex 14.6 44.35 0
    endloop
  endfacet
  facet normal 0 0 -1
    outer loop
      vertex 0 31.65 0
      vertex 1.4 44.35 0
      vertex 1.4 31.65 0
    endloop
  endfacet
  facet normal -0 0 -1
    outer loop
      vertex 1.4 44.35 0
      vertex 0 31.65 0
      vertex 0 44.35 0
    endloop
  endfacet
  facet normal 0 0 -1
    outer loop
      vertex 2.4 31.65 0
      vertex 13.6 44.35 0
      vertex 13.6 31.65 0
    endloop
  endfacet
  facet normal -0 0 -1
    outer loop
      vertex 13.6 44.35 0
      vertex 2.4 31.65 0
      vertex 2.4 44.35 0
    endloop
  endfacet
  facet normal 1 -0 0
    outer loop
      vertex 16 32.25 1.34999
      vertex 16 44.35 0
      vertex 16 43.75 1.34999
    endloop
  endfacet
  facet normal 1 0 0
    outer loop
      vertex 16 44.35 0
      vertex 16 32.25 1.34999
      vertex 16 31.65 0
    endloop
  endfacet
  facet normal 0 0 1
    outer loop
      vertex 16 43.75 1.34999
      vertex 10 41 1.34999
      vertex 16 32.25 1.34999
    endloop
  endfacet
  facet normal 0 0 1
    outer loop
      vertex 16 43.75 1.34999
      vertex 6 41 1.34999
      vertex 10 41 1.34999
    endloop
  endfacet
  facet normal 0 0 1
    outer loop
      vertex 6 41 1.34999
      vertex 0 43.75 1.34999
      vertex 6 35 1.34999
    endloop
  endfacet
  facet normal -0 0 1
    outer loop
      vertex 0 43.75 1.34999
      vertex 6 41 1.34999
      vertex 16 43.75 1.34999
    endloop
  endfacet
  facet normal -0 0 1
    outer loop
      vertex 10 35 1.34999
      vertex 16 32.25 1.34999
      vertex 10 41 1.34999
    endloop
  endfacet
  facet normal -0 0 1
    outer loop
      vertex 6 35 1.34999
      vertex 16 32.25 1.34999
      vertex 10 35 1.34999
    endloop
  endfacet
  facet normal 0 0 1
    outer loop
      vertex 6 35 1.34999
      vertex 0 32.25 1.34999
      vertex 16 32.25 1.34999
    endloop
  endfacet
  facet normal 0 0 1
    outer loop
      vertex 0 32.25 1.34999
      vertex 6 35 1.34999
      vertex 0 43.75 1.34999
    endloop
  endfacet
  facet normal -1 0 0
    outer loop
      vertex 0 44.35 0
      vertex 0 32.25 1.34999
      vertex 0 43.75 1.34999
    endloop
  endfacet
  facet normal -1 0 -0
    outer loop
      vertex 0 32.25 1.34999
      vertex 0 44.35 0
      vertex 0 31.65 0
    endloop
  endfacet
  facet normal 1 -0 0
    outer loop
      vertex 10 35 2.35
      vertex 10 41 1.34999
      vertex 10 41 2.35
    endloop
  endfacet
  facet normal 1 0 0
    outer loop
      vertex 10 41 1.34999
      vertex 10 35 2.35
      vertex 10 35 1.34999
    endloop
  endfacet
  facet normal -0 0 1
    outer loop
      vertex 6 41 2.35
      vertex 10 35 2.35
      vertex 10 41 2.35
    endloop
  endfacet
  facet normal 0 0 1
    outer loop
      vertex 10 35 2.35
      vertex 6 41 2.35
      vertex 6 35 2.35
    endloop
  endfacet
  facet normal -1 0 0
    outer loop
      vertex 6 35 1.34999
      vertex 6 41 2.35
      vertex 6 41 1.34999
    endloop
  endfacet
  facet normal -1 -0 0
    outer loop
      vertex 6 41 2.35
      vertex 6 35 1.34999
      vertex 6 35 2.35
    endloop
  endfacet
  facet normal 0 1 -0
    outer loop
      vertex 10 41 1.34999
      vertex 6 41 2.35
      vertex 10 41 2.35
    endloop
  endfacet
  facet normal 0 1 0
    outer loop
      vertex 6 41 2.35
      vertex 10 41 1.34999
      vertex 6 41 1.34999
    endloop
  endfacet
  facet normal 0 -1 0
    outer loop
      vertex 6 35 1.34999
      vertex 10 35 2.35
      vertex 6 35 2.35
    endloop
  endfacet
  facet normal 0 -1 -0
    outer loop
      vertex 10 35 2.35
      vertex 6 35 1.34999
      vertex 10 35 1.34999
    endloop
  endfacet
  facet normal -1 0 0
    outer loop
      vertex 2.4 44.35 0
      vertex 2.4 31.8233 0.389999
      vertex 2.4 44.1767 0.389999
    endloop
  endfacet
  facet normal -1 0 -0
    outer loop
      vertex 2.4 31.8233 0.389999
      vertex 2.4 44.35 0
      vertex 2.4 31.65 0
    endloop
  endfacet
  facet normal 0 0 -1
    outer loop
      vertex 1.4 31.8233 0.389999
      vertex 2.4 44.1767 0.389999
      vertex 2.4 31.8233 0.389999
    endloop
  endfacet
  facet normal -0 0 -1
    outer loop
      vertex 2.4 44.1767 0.389999
      vertex 1.4 31.8233 0.389999
      vertex 1.4 44.1767 0.389999
    endloop
  endfacet
  facet normal 1 -0 0
    outer loop
      vertex 1.4 31.8233 0.389999
      vertex 1.4 44.35 0
      vertex 1.4 44.1767 0.389999
    endloop
  endfacet
  facet normal 1 0 0
    outer loop
      vertex 1.4 44.35 0
      vertex 1.4 31.8233 0.389999
      vertex 1.4 31.65 0
    endloop
  endfacet
  facet normal -1 0 0
    outer loop
      vertex 14.6 44.35 0
      vertex 14.6 31.8233 0.389999
      vertex 14.6 44.1767 0.389999
    endloop
  endfacet
  facet normal -1 0 -0
    outer loop
      vertex 14.6 31.8233 0.389999
      vertex 14.6 44.35 0
      vertex 14.6 31.65 0
    endloop
  endfacet
  facet normal 0 0 -1
    outer loop
      vertex 13.6 31.8233 0.389999
      vertex 14.6 44.1767 0.389999
      vertex 14.6 31.8233 0.389999
    endloop
  endfacet
  facet normal -0 0 -1
    outer loop
      vertex 14.6 44.1767 0.389999
      vertex 13.6 31.8233 0.389999
      vertex 13.6 44.1767 0.389999
    endloop
  endfacet
  facet normal 1 -0 0
    outer loop
      vertex 13.6 31.8233 0.389999
      vertex 13.6 44.35 0
      vertex 13.6 44.1767 0.389999
    endloop
  endfacet
  facet normal 1 0 0
    outer loop
      vertex 13.6 44.35 0
      vertex 13.6 31.8233 0.389999
      vertex 13.6 31.65 0
    endloop
  endfacet
endsolid OpenSCAD_Model
